<svg width="30" height="28" viewBox="0 0 30 28" fill="none" xmlns="http://www.w3.org/2000/svg">
<path d="M28.02 8.75399L7.416 6.47399L6.16 1.71499C6.11634 1.55538 6.02165 1.41443 5.89038 1.31368C5.75911 1.21293 5.59847 1.1579 5.433 1.15699H2.34C2.22821 1.00651 2.08309 0.883962 1.91602 0.79895C1.74894 0.713937 1.56445 0.668772 1.377 0.666992C1.04773 0.666992 0.731951 0.797792 0.499125 1.03062C0.266299 1.26345 0.135498 1.57923 0.135498 1.90849C0.135498 2.23776 0.266299 2.55354 0.499125 2.78637C0.731951 3.01919 1.04773 3.14999 1.377 3.14999C1.777 3.14999 2.115 2.94999 2.342 2.65799H4.854L10.084 22.458C9.51349 23.0653 9.19532 23.8668 9.194 24.7C9.1936 25.1325 9.27848 25.5608 9.44376 25.9604C9.60905 26.36 9.85151 26.7232 10.1573 27.029C10.463 27.3349 10.8261 27.5774 11.2257 27.7428C11.6253 27.9083 12.0535 27.9933 12.486 27.993C13.3598 27.9933 14.198 27.6465 14.8162 27.029C15.4345 26.4115 15.7822 25.5738 15.783 24.7C15.7813 24.4495 15.7501 24.2001 15.69 23.957H21.223C21.1638 24.2003 21.1329 24.4496 21.131 24.7C21.131 26.52 22.607 27.993 24.427 27.993C26.247 27.993 27.72 26.52 27.72 24.7C27.7203 23.826 27.3734 22.9877 26.7557 22.3694C26.138 21.7511 25.3 21.4035 24.426 21.403C23.476 21.403 22.626 21.813 22.024 22.456H14.888C14.5818 22.1245 14.2103 21.8598 13.797 21.6786C13.3836 21.4974 12.9373 21.4036 12.486 21.403C12.106 21.403 11.748 21.481 11.409 21.599L11.227 20.913H25.81C26.3704 20.9015 26.9108 20.7021 27.3442 20.3466C27.7776 19.9911 28.079 19.5003 28.2 18.953L29.775 11.155C29.8016 11.0186 29.815 10.88 29.815 10.741C29.8158 10.246 29.6325 9.76837 29.3007 9.40097C28.969 9.03357 28.5125 8.80362 28.02 8.75399ZM24.428 24.994C24.3497 24.9937 24.2746 24.9626 24.219 24.9074C24.1634 24.8522 24.1318 24.7773 24.131 24.699C24.134 24.533 24.266 24.401 24.429 24.401C24.592 24.401 24.724 24.533 24.726 24.698C24.7249 24.7762 24.6932 24.8508 24.6377 24.9058C24.5821 24.9608 24.5072 24.9917 24.429 24.992L24.428 24.994ZM26.208 17.499L27.156 16.549L26.838 18.129L26.208 17.499ZM11.755 8.46199L12.79 9.49999L11.5 10.79L10.207 9.49999L11.294 8.41199L11.754 8.46199H11.755ZM16.253 8.95999L16.791 9.49999L15.501 10.79L14.208 9.49999L14.896 8.80999L16.253 8.95999ZM8.63 11.076L9.5 10.208L10.79 11.5L9.5 12.79L8.935 12.227L8.631 11.075L8.63 11.076ZM8.335 9.95599L8.007 8.71599L8.792 9.50099L8.335 9.95599ZM20.79 13.5L19.5 14.79L18.207 13.5L19.499 12.207L20.789 13.499L20.79 13.5ZM20.207 11.5L21.499 10.208L22.789 11.5L21.499 12.792L20.206 11.5H20.207ZM17.5 12.79L16.207 11.5L17.499 10.207L18.789 11.499L17.499 12.789L17.5 12.79ZM16.79 13.5L15.5 14.79L14.208 13.5L15.5 12.207L16.79 13.5ZM13.5 12.79L12.207 11.5L13.499 10.207L14.789 11.499L13.499 12.789L13.5 12.79ZM12.79 13.5L11.5 14.79L10.207 13.5L11.499 12.207L12.789 13.499L12.79 13.5ZM9.5 14.207L10.79 15.499L10.006 16.282L9.466 14.238L9.499 14.205L9.5 14.207ZM10.302 17.404L11.499 16.207L12.789 17.499L11.499 18.789L10.369 17.659L10.301 17.403L10.302 17.404ZM12.208 15.499L13.498 14.206L14.791 15.498L13.501 16.788L12.209 15.498L12.208 15.499ZM15.5 16.206L16.792 17.498L15.5 18.788L14.208 17.498L15.5 16.206ZM16.208 15.498L17.5 14.205L18.79 15.497L17.5 16.787L16.208 15.498ZM19.498 16.205L20.791 17.497L19.501 18.787L18.209 17.495L19.499 16.205H19.498ZM20.208 15.497L21.498 14.204L22.791 15.496L21.501 16.786L20.208 15.497ZM22.208 13.497L23.498 12.204L24.791 13.496L23.501 14.786L22.208 13.497ZM24.208 11.497L25.498 10.204L26.79 11.5L25.5 12.792L24.207 11.499L24.208 11.497ZM23.498 10.789L22.343 9.63299L24.425 9.86299L23.499 10.789H23.498ZM20.792 9.49999L19.502 10.792L18.209 9.49999L18.499 9.20999L20.752 9.45999L20.792 9.49999ZM13.502 8.78999L13.35 8.63999L13.623 8.66999L13.503 8.78999H13.502ZM9.502 8.79199L8.852 8.14199L10.022 8.27199L9.502 8.79199ZM13.502 18.207L14.707 19.412H12.297L13.502 18.207ZM17.502 18.207L18.707 19.413H16.295L17.501 18.207H17.502ZM21.502 18.207L22.709 19.414H20.295L21.501 18.207H21.502ZM22.209 17.499L23.501 16.206L24.791 17.498L23.501 18.788L22.208 17.498L22.209 17.499ZM24.209 15.499L25.501 14.207L26.791 15.497L25.501 16.79L24.208 15.5L24.209 15.499ZM27.501 14.789L26.209 13.499L27.499 12.207L27.944 12.651L27.514 14.775L27.5 14.79L27.501 14.789ZM28.001 10.289L27.501 10.789L26.841 10.132L27.858 10.244C27.912 10.252 27.958 10.27 28.002 10.288L28.001 10.289ZM12.488 24.993C12.4123 24.9886 12.3412 24.9554 12.2892 24.9003C12.2372 24.8452 12.2082 24.7723 12.2082 24.6965C12.2082 24.6207 12.2372 24.5478 12.2892 24.4927C12.3412 24.4375 12.4123 24.4044 12.488 24.4C12.5634 24.4044 12.6343 24.4374 12.6861 24.4924C12.7379 24.5473 12.7668 24.62 12.7668 24.6955C12.7668 24.771 12.7379 24.8437 12.6861 24.8986C12.6343 24.9536 12.5634 24.9866 12.488 24.991V24.993ZM25.811 19.413H24.294L25.501 18.206L26.431 19.136C26.244 19.306 26.008 19.426 25.811 19.413Z" fill="white"/>
</svg>
