<svg width="128" height="128" viewBox="0 0 128 128" fill="none" xmlns="http://www.w3.org/2000/svg">
<path d="M114.11 70.76C112.31 44.78 94.4401 26.3 64.0001 26.3C33.5601 26.3 15.6901 44.78 13.8901 70.76C12.8401 85.9 18.9401 98.77 30.9801 106.97C30.9801 106.97 43.1901 116.85 64.0001 117.11C84.8101 116.85 97.0201 106.97 97.0201 106.97C109.05 98.77 115.16 85.9 114.11 70.76Z" fill="#FFC022"/>
<path opacity="0.47" d="M54.12 45.02C55.25 45.98 57.54 45.84 58.87 44.3C60.48 42.43 62.16 36.13 61.11 26.39C56.44 26.56 52.02 27.23 47.9 28.36C51.23 33.82 52.03 43.24 54.12 45.02ZM73.88 45.02C72.75 45.98 70.46 45.84 69.13 44.3C67.52 42.43 65.84 36.13 66.89 26.39C71.56 26.56 75.98 27.23 80.1 28.36C76.77 33.82 75.97 43.24 73.88 45.02Z" fill="#FF7043"/>
<path d="M55.96 74.54C55.91 71.68 60.02 70.3 63.91 70.24C67.8 70.18 71.98 71.44 72.03 74.3C72.08 77.16 67.17 80.94 64.08 80.94C61 80.94 56.01 77.4 55.96 74.54Z" fill="black"/>
<path d="M4.12 74.76C4.12 74.76 10.77 69.59 22.06 69.69M5.58 89.09C5.58 89.09 10.21 79.03 23.33 76.77M15.04 98.29C15.04 98.29 18.35 87.82 25.28 83.56M123.88 74.76C123.88 74.76 117.23 69.59 105.94 69.69M122.42 89.09C122.42 89.09 117.79 79.03 104.67 76.77M112.96 98.29C112.96 98.29 109.65 87.82 102.72 83.56" stroke="#9E9E9E" stroke-width="3" stroke-miterlimit="10" stroke-linecap="round"/>
<path d="M33.78 61.77C34.11 60.14 35.23 58.12 37.41 57.4C41.16 56.15 43.94 54.9 45.35 54.22C45.93 53.94 46.61 54.24 46.8 54.85C47.16 56.02 47.68 57.98 47.93 60.34C48.5 65.59 44.87 68.78 40.94 69.02C36.34 69.3 33.06 65.37 33.78 61.77ZM94.22 61.77C93.89 60.14 92.77 58.12 90.59 57.4C86.84 56.15 84.06 54.9 82.65 54.22C82.515 54.1541 82.3673 54.1184 82.2171 54.1151C82.0669 54.1118 81.9177 54.1411 81.7799 54.201C81.6421 54.2608 81.5189 54.3499 81.4188 54.4619C81.3187 54.5739 81.2441 54.7063 81.2 54.85C80.84 56.02 80.32 57.98 80.07 60.34C79.5 65.59 83.13 68.78 87.06 69.02C91.66 69.3 94.94 65.37 94.22 61.77ZM65.98 83.98V79.53H61.98V83.97C61.98 86.38 60.69 88.56 58.67 89.88C54.64 92.51 52.6 94.68 50.72 96.89C49.54 98.27 50.05 100.4 51.73 101.09C52.96 101.6 54.38 101.14 55.05 99.98C56.81 96.93 60.12 92.68 63.99 92.68C67.75 92.68 70.99 96.71 72.78 99.74C73.1335 100.335 73.7043 100.77 74.3721 100.953C75.0399 101.136 75.7526 101.052 76.36 100.72L76.54 100.62C78.06 99.78 78.39 97.74 77.21 96.46C75.36 94.45 72.5 92.07 69.31 89.88C67.32 88.52 65.98 86.39 65.98 83.98Z" fill="black"/>
<path d="M34.78 73.43C34.9237 73.1296 35.1497 72.8762 35.4317 72.6991C35.7137 72.522 36.0402 72.4286 36.3732 72.4296C36.7062 72.4307 37.032 72.5262 37.3129 72.705C37.5938 72.8839 37.8182 73.1387 37.96 73.44C40.17 78.03 44.07 86.57 45.41 92.46C47.42 101.27 43.28 109.57 36.22 109.41C27.36 109.22 23.96 98.8 27.37 89.7C29.04 85.27 32.68 77.71 34.78 73.43Z" fill="#28B3F2"/>
<path d="M40.15 107.38C31.29 107.97 27.18 98.19 29.96 89.08C31.31 84.65 34.43 77.01 36.23 72.69C36.27 72.59 36.33 72.52 36.38 72.43C35.75 72.43 35.11 72.76 34.78 73.43C32.68 77.71 29.04 85.27 27.38 89.7C23.97 98.8 27.37 109.22 36.23 109.41C38.62 109.46 40.67 108.53 42.26 106.95C41.5778 107.182 40.8688 107.327 40.15 107.38Z" fill="#0277BD"/>
<path d="M39.27 85.81C41.31 85.78 42.78 90.25 43.04 95.37C43.35 101.45 38.26 102.91 36.99 97.22C36.06 93.07 37.18 85.84 39.27 85.81Z" fill="#81D4FA"/>
<path d="M19.91 58.62C5.72998 40.06 4.91998 22.48 6.10998 16.64C6.61998 14.15 8.81998 12.71 11.28 12.59C16.87 12.33 32.18 16.65 46.13 29.07L19.91 58.62Z" fill="#FFC022"/>
<path d="M15.22 23.77C15.0695 23.7244 14.9104 23.7149 14.7556 23.7423C14.6008 23.7697 14.4546 23.8332 14.3289 23.9277C14.2033 24.0222 14.1017 24.145 14.0323 24.2862C13.963 24.4273 13.928 24.5828 13.93 24.74C13.99 29.83 14.57 36.11 20.78 44.77C21.73 46.1 22.86 47.86 25.55 44.9C27.04 43.26 31.47 38.54 31.47 38.54C32.66 37.47 35.08 35.6 33.33 33.96C33.25 33.89 26.71 27.3 15.22 23.77Z" fill="#FFD1D1"/>
<path d="M108.09 58.62C122.27 40.06 123.08 22.47 121.89 16.64C121.38 14.15 119.18 12.71 116.72 12.59C111.13 12.33 95.82 16.65 81.87 29.07L108.09 58.62Z" fill="#FFC022"/>
<path d="M112.78 23.77C112.931 23.7244 113.09 23.7149 113.244 23.7423C113.399 23.7697 113.545 23.8332 113.671 23.9277C113.797 24.0222 113.898 24.145 113.968 24.2862C114.037 24.4273 114.072 24.5828 114.07 24.74C114.01 29.83 113.43 36.11 107.22 44.77C106.27 46.1 105.14 47.86 102.45 44.9C100.96 43.26 96.5301 38.54 96.5301 38.54C95.3401 37.47 92.9201 35.6 94.6701 33.96C94.7501 33.89 101.29 27.3 112.78 23.77Z" fill="#FFD1D1"/>
</svg>
