<svg width="20" height="20" viewBox="0 0 20 20" fill="none" xmlns="http://www.w3.org/2000/svg">
<path d="M14.275 15.125L13.85 14.7C13.7 14.55 13.521 14.475 13.313 14.475C13.105 14.475 12.9257 14.55 12.775 14.7C12.625 14.85 12.55 15.025 12.55 15.225C12.55 15.425 12.625 15.6 12.775 15.75L13.75 16.725C13.9 16.875 14.075 16.95 14.275 16.95C14.475 16.95 14.65 16.875 14.8 16.725L17.225 14.35C17.375 14.2 17.45 14.0207 17.45 13.812C17.45 13.6033 17.375 13.4243 17.225 13.275C17.075 13.125 16.8957 13.05 16.687 13.05C16.4783 13.05 16.2993 13.125 16.15 13.275L14.275 15.125ZM14 6C14.2833 6 14.521 5.904 14.713 5.712C14.905 5.52 15.0007 5.28267 15 5C15 4.71667 14.904 4.479 14.712 4.287C14.52 4.095 14.2827 3.99934 14 4H4C3.71667 4 3.479 4.096 3.287 4.288C3.095 4.48 2.99933 4.71734 3 5C3 5.28334 3.096 5.521 3.288 5.713C3.48 5.905 3.71733 6.00067 4 6H14ZM15 20C13.6167 20 12.4377 19.5123 11.463 18.537C10.4883 17.5617 10.0007 16.3827 10 15C10 13.6167 10.4877 12.4373 11.463 11.462C12.4383 10.4867 13.6173 9.99934 15 10C16.3833 10 17.5627 10.4877 18.538 11.463C19.5133 12.4383 20.0007 13.6173 20 15C20 16.3833 19.5123 17.5627 18.537 18.538C17.5617 19.5133 16.3827 20.0007 15 20ZM2 1.69779e-06H16C16.55 1.69779e-06 17.021 0.196002 17.413 0.588002C17.805 0.980002 18.0007 1.45067 18 2V8.675C17.5333 8.44167 17.0457 8.27067 16.537 8.162C16.0283 8.05333 15.516 7.99934 15 8H4C3.71667 8 3.479 8.096 3.287 8.288C3.095 8.48 2.99933 8.71734 3 9C3 9.28334 3.096 9.521 3.288 9.713C3.48 9.905 3.71733 10.0007 4 10H10.1C9.81667 10.2833 9.55433 10.5917 9.313 10.925C9.07167 11.2583 8.859 11.6167 8.675 12H4C3.71667 12 3.479 12.096 3.287 12.288C3.095 12.48 2.99933 12.7173 3 13C3 13.2833 3.096 13.521 3.288 13.713C3.48 13.905 3.71733 14.0007 4 14H8.075C8.04167 14.1667 8.02067 14.3293 8.012 14.488C8.00333 14.6467 7.99933 14.8173 8 15C8 15.7 8.096 16.371 8.288 17.013C8.48 17.655 8.76733 18.2673 9.15 18.85C9.06667 18.8667 8.979 18.854 8.887 18.812C8.795 18.77 8.716 18.716 8.65 18.65L7.85 17.85C7.75 17.75 7.63333 17.7 7.5 17.7C7.36667 17.7 7.25 17.75 7.15 17.85L6.35 18.65C6.25 18.75 6.13333 18.8 6 18.8C5.86667 18.8 5.75 18.75 5.65 18.65L4.85 17.85C4.75 17.75 4.63333 17.7 4.5 17.7C4.36667 17.7 4.25 17.75 4.15 17.85L3.35 18.65C3.25 18.75 3.13333 18.8 3 18.8C2.86667 18.8 2.75 18.75 2.65 18.65L1.85 17.85C1.75 17.75 1.63333 17.7 1.5 17.7C1.36667 17.7 1.25 17.75 1.15 17.85L0.35 18.65L0 18.875V2C0 1.45 0.196 0.979002 0.588 0.587002C0.98 0.195002 1.45067 -0.000664969 2 1.69779e-06Z" fill="white"/>
</svg>
