<svg width="357" height="485" viewBox="0 0 357 485" fill="none" xmlns="http://www.w3.org/2000/svg">
<path fill-rule="evenodd" clip-rule="evenodd" d="M296.837 278.631C310.805 276.586 322.721 271.259 332.081 260.527C340.378 251.015 341.05 235.415 332.134 225.997C325.462 218.95 315.478 216.385 306.223 213.427C283.247 206.087 261.668 194.444 242.902 179.325C224.141 164.211 198.774 153.301 176.124 144.455C154.615 136.055 130.534 123.706 106.726 129.489C97.9728 131.616 90.0687 136.077 82.9416 141.479C75.7694 146.914 72.0233 152.816 66.5576 159.815C56.1048 173.2 51.7957 183.653 36.3879 190.856C24.8608 196.246 0.364352 197.324 0.00413147 221.398C-0.268004 239.587 26.2086 247.169 41.2233 251.376C58.1279 256.114 76.6925 265.425 89.5373 277.524C96.2662 283.862 101.88 291.295 108.541 297.704C124.07 312.645 145.77 315.718 166.528 316.344C187.305 316.971 204.978 305.317 222.583 295.893C241.008 286.029 259.891 281.764 280.744 280.214C285.934 279.829 291.405 279.426 296.837 278.631L438 485Z" fill="#F5D798"/>
<path fill-rule="evenodd" clip-rule="evenodd" d="M276.045 286.007C283.048 286.127 289.088 287.757 288.999 292.968C288.944 296.178 285.311 298.439 281.907 298.614C278.503 298.788 275.233 297.52 271.937 296.699C265.892 295.194 259.432 295.188 253.372 296.684C250.719 297.344 238.693 303.049 238.022 297.8C237.336 292.436 252.578 289.231 256.319 288.33C259.492 287.565 268.351 285.875 276.045 286.007Z" fill="#F5D798"/>
<path fill-rule="evenodd" clip-rule="evenodd" d="M225.911 299.621C222.867 301.692 223.462 306.508 227.676 305.956C230.049 305.645 233.827 304.046 233.991 301.216C234.27 296.393 228.301 297.995 225.911 299.621Z" fill="#F5D798"/>
<path fill-rule="evenodd" clip-rule="evenodd" d="M292.664 235.213C279.314 228.04 254.769 214.408 254.769 214.408L153.461 149L139.78 172.046L122.737 162.238C121.103 161.298 118.454 161.298 116.82 162.238L22.2256 216.672C20.5915 217.612 20.5915 219.137 22.2256 220.076L168.582 304.295C170.215 305.235 172.864 305.235 174.498 304.295L269.093 249.861C269.604 249.567 269.936 249.213 270.127 248.841C273.361 246.448 285.137 242.266 292.277 239.837C294.378 239.123 294.617 236.263 292.664 235.213Z" fill="#7974F2"/>
<path fill-rule="evenodd" clip-rule="evenodd" d="M310.753 227.49C313.585 229.149 315 231.325 315 233.5C315 233.953 314.939 234.406 314.816 234.855C314.349 236.559 312.995 238.196 310.753 239.511C307.922 241.17 304.211 242 300.5 242C296.789 242 293.078 241.17 290.247 239.511C288.005 238.196 286.651 236.559 286.184 234.855C286.061 234.406 286 233.953 286 233.5C286 231.325 287.416 229.149 290.247 227.49C293.078 225.83 296.789 225 300.5 225C304.211 225 307.922 225.83 310.753 227.49Z" fill="#7974F2"/>
<path fill-rule="evenodd" clip-rule="evenodd" d="M313.749 216.078C310.09 218.244 305.295 219.328 300.5 219.328C295.704 219.328 290.909 218.244 287.25 216.078C284.353 214.363 282.603 212.226 282 210L288.175 232.787C288.577 234.269 289.743 235.693 291.673 236.835C294.11 238.278 297.305 239 300.5 239C303.694 239 306.889 238.278 309.327 236.835C311.257 235.693 312.423 234.269 312.824 232.787L319 210C318.397 212.226 316.647 214.363 313.749 216.078Z" fill="#C7D9FF"/>
<path fill-rule="evenodd" clip-rule="evenodd" d="M313.435 202.222C317.145 204.37 319 207.185 319 210C319 210.586 318.92 211.172 318.759 211.752C318.148 213.958 316.373 216.077 313.435 217.779C309.725 219.926 304.863 221 300 221C295.137 221 290.275 219.926 286.565 217.779C283.628 216.077 281.852 213.958 281.241 211.752C281.08 211.172 281 210.586 281 210C281 207.185 282.855 204.37 286.565 202.222C290.275 200.074 295.137 199 300 199C304.863 199 309.725 200.074 313.435 202.222Z" fill="#F2F6FF"/>
<path fill-rule="evenodd" clip-rule="evenodd" d="M312.167 202.782C315.389 204.637 317 207.069 317 209.5C317 210.006 316.93 210.512 316.79 211.013C316.259 212.918 314.718 214.749 312.167 216.218C308.945 218.073 304.722 219 300.5 219C296.278 219 292.055 218.073 288.833 216.218C286.282 214.749 284.74 212.918 284.21 211.013C284.07 210.512 284 210.006 284 209.5C284 207.069 285.611 204.637 288.833 202.782C292.055 200.927 296.278 200 300.5 200C304.722 200 308.945 200.927 312.167 202.782Z" fill="#413CD1"/>
<path fill-rule="evenodd" clip-rule="evenodd" d="M305.243 206.879C306.414 207.464 307 208.232 307 209C307 209.16 306.974 209.32 306.924 209.477C306.73 210.08 306.17 210.658 305.243 211.121C304.071 211.707 302.536 212 301 212C299.464 212 297.929 211.707 296.757 211.121C295.829 210.658 295.27 210.08 295.076 209.477C295.025 209.32 295 209.16 295 209C295 208.232 295.586 207.464 296.757 206.879C297.929 206.293 299.464 206 301 206C302.536 206 304.071 206.293 305.243 206.879Z" fill="#142B66"/>
<path fill-rule="evenodd" clip-rule="evenodd" d="M314.148 218.053C311.983 219.298 309.409 220.212 306.613 220.776L305 239C306.384 238.651 307.657 238.161 308.753 237.53C310.501 236.525 311.622 235.284 311.996 233.942L317 216C316.189 216.739 315.236 217.427 314.148 218.053Z" fill="#244FAD"/>
<path fill-rule="evenodd" clip-rule="evenodd" d="M300.029 193.197C302.356 190.729 306.622 188.167 307.816 187.654C308.147 187.509 308.509 187.361 308.898 187.212C309.598 186.239 310.468 185.205 311.5 184.196C309.83 180.693 310.359 174.754 313.025 171.502C315.855 168.051 320.169 166.854 321.726 171.502C324.484 167.769 322.405 164.728 318.919 163.192C314.393 161.197 304.183 160.446 295.765 171.431C288.355 181.102 293.825 196.989 295.821 202C296.366 198.065 298.171 194.579 300.029 193.197Z" fill="#E04428"/>
<path fill-rule="evenodd" clip-rule="evenodd" d="M298.667 196.486C288.104 185.918 276.578 187.947 269.997 193.931C263.871 199.502 261.039 209.928 264.492 220C267.415 206.513 286.534 193.14 299 207.88C297.431 203.422 297.45 199.283 298.667 196.486Z" fill="#E04428"/>
<path fill-rule="evenodd" clip-rule="evenodd" d="M269.585 193.161C276.271 187.23 287.981 185.218 298.711 195.693C299.193 194.612 299.854 193.727 300.686 193.114C301.076 192.702 301.524 192.29 302 191.884C299.089 187.674 293.306 182.272 285.332 182.017C274.239 181.663 265.406 186.897 260.884 195.9C256.361 204.903 261.026 214.743 263.993 219C260.485 209.016 263.361 198.682 269.585 193.161Z" fill="#FB401F"/>
<path fill-rule="evenodd" clip-rule="evenodd" d="M327.541 209C323.595 199.106 317.312 194.738 311.738 193.058C306.711 191.541 302.258 192.21 300.614 192.977C300.41 193.075 300.202 193.193 300 193.345C302.313 190.979 306.559 188.523 307.747 188.031C311.434 186.481 318.979 184.365 325.199 188.031C331.032 191.471 335.868 202.924 327.541 209Z" fill="#E04428"/>
<path fill-rule="evenodd" clip-rule="evenodd" d="M312 192.934C307.224 195.046 303.527 200.008 303.457 209.049C302.267 210.33 298.174 210.226 296.916 209.276C294.483 203.124 297.337 195.437 300.33 193.227C300.531 193.072 300.738 192.951 300.94 192.85C302.574 192.065 307.002 191.378 312 192.934Z" fill="#FB401F"/>
<path fill-rule="evenodd" clip-rule="evenodd" d="M325.892 179C317.526 179 311.861 184.029 309 188.009C312.33 186.731 317.657 185.456 322.647 187.154C330.56 185.828 337.547 193.718 338.173 202C346.359 185.612 335.067 179 325.892 179Z" fill="#FB401F"/>
<path fill-rule="evenodd" clip-rule="evenodd" d="M277.905 182.851C280.223 182.373 282.687 182.16 285.273 182.24C288.017 182.325 290.498 182.998 292.703 184C292.749 180.013 293.619 176.015 296 172.688C292.204 169.641 287.461 168.398 285.13 168.091C280.703 167.506 267.671 169.634 265 177.787C267.931 174.974 274.745 177.811 277.905 182.851Z" fill="#E04428"/>
<path fill-rule="evenodd" clip-rule="evenodd" d="M260.855 245.115C262.382 244.231 262.382 242.797 260.855 241.911L124.078 162.663C122.551 161.779 120.075 161.779 118.548 162.663L30.1452 213.885C28.6183 214.769 28.6183 216.204 30.1452 217.089L166.922 296.337C168.449 297.221 170.925 297.221 172.451 296.337L260.855 245.115Z" fill="#E3E2FB"/>
<path fill-rule="evenodd" clip-rule="evenodd" d="M123.093 267.6L81.6952 243.782C80.7683 243.248 80.7683 242.383 81.6952 241.85L108.548 226.4C109.476 225.867 110.98 225.867 111.907 226.4L153.304 250.217C154.232 250.751 154.232 251.616 153.304 252.15L126.451 267.6C125.524 268.133 124.02 268.133 123.093 267.6Z" fill="#B3ADFB"/>
<path fill-rule="evenodd" clip-rule="evenodd" d="M260.855 245.676L172.451 296.98C170.925 297.866 168.449 297.866 166.922 296.98L30.1452 217.604C29.3817 217.161 29 216.581 29 216V219.356C29 219.936 29.3817 220.517 30.1452 220.96L166.922 300.335C168.449 301.222 170.925 301.221 172.451 300.335L260.855 249.031C261.618 248.588 262 248.008 262 247.427V244.072C262 244.652 261.618 245.233 260.855 245.676Z" fill="#423EAF"/>
<path fill-rule="evenodd" clip-rule="evenodd" d="M31.2309 217.491C30.4103 217.08 30 216.54 30 216V219.119C30 219.659 30.4103 220.199 31.2309 220.611L34 222V218.881L31.2309 217.491Z" fill="#4F4AD1"/>
<path fill-rule="evenodd" clip-rule="evenodd" d="M173.752 297.317C172.273 298.129 169.876 298.129 168.398 297.317L166 296V299.075L168.398 300.391C169.876 301.203 172.273 301.203 173.752 300.391L176 299.156V296.082L173.752 297.317Z" fill="#4F4AD1"/>
<path fill-rule="evenodd" clip-rule="evenodd" d="M261.738 245.504L259 246.855V250L261.738 248.648C262.579 248.233 263 247.689 263 247.145V244C263 244.544 262.579 245.088 261.738 245.504Z" fill="#4F4AD1"/>
<path fill-rule="evenodd" clip-rule="evenodd" d="M201.183 274.662C200.402 275.113 199.134 275.113 198.353 274.662L69.5859 200.374C68.8047 199.923 68.8047 199.192 69.5859 198.741L118.817 170.338C119.599 169.887 120.866 169.887 121.648 170.338L250.414 244.626C251.195 245.076 251.195 245.808 250.414 246.259L201.183 274.662Z" fill="#B3ADFB"/>
<path fill-rule="evenodd" clip-rule="evenodd" d="M114.045 184.756C113.468 185.081 112.532 185.081 111.955 184.756L105.433 181.088C104.856 180.763 104.856 180.237 105.433 179.912L111.956 176.244C112.532 175.919 113.468 175.919 114.045 176.244L120.567 179.912C121.144 180.237 121.144 180.763 120.567 181.088L114.045 184.756Z" fill="#8581D2"/>
<path fill-rule="evenodd" clip-rule="evenodd" d="M125.045 190.756C124.468 191.081 123.532 191.081 122.955 190.756L116.433 187.088C115.855 186.763 115.856 186.237 116.433 185.912L122.955 182.243C123.532 181.919 124.469 181.919 125.046 182.243L131.567 185.912C132.144 186.237 132.144 186.764 131.567 187.088L125.045 190.756Z" fill="#8581D2"/>
<path fill-rule="evenodd" clip-rule="evenodd" d="M136.045 197.756C135.468 198.081 134.532 198.081 133.955 197.756L127.433 194.088C126.856 193.763 126.856 193.237 127.433 192.912L133.956 189.244C134.533 188.919 135.468 188.919 136.045 189.244L142.567 192.912C143.144 193.237 143.144 193.763 142.567 194.088L136.045 197.756Z" fill="#8581D2"/>
<path fill-rule="evenodd" clip-rule="evenodd" d="M98.045 212.756C97.4681 213.081 96.5318 213.081 95.9549 212.756L89.4332 209.088C88.8556 208.763 88.8556 208.237 89.4332 207.912L95.9556 204.243C96.5325 203.919 97.4681 203.919 98.045 204.243L104.567 207.912C105.144 208.237 105.144 208.764 104.567 209.088L98.045 212.756Z" fill="#8581D2"/>
<path fill-rule="evenodd" clip-rule="evenodd" d="M109.045 218.756C108.468 219.081 107.532 219.081 106.955 218.756L100.433 215.088C99.8553 214.763 99.856 214.237 100.433 213.912L106.955 210.244C107.532 209.919 108.469 209.919 109.046 210.244L115.567 213.912C116.144 214.237 116.144 214.763 115.567 215.088L109.045 218.756Z" fill="#8581D2"/>
<path fill-rule="evenodd" clip-rule="evenodd" d="M147.045 203.756C146.468 204.081 145.532 204.081 144.955 203.756L138.433 200.088C137.856 199.763 137.856 199.237 138.433 198.912L144.956 195.243C145.532 194.919 146.468 194.919 147.045 195.243L153.567 198.912C154.144 199.237 154.144 199.764 153.567 200.088L147.045 203.756Z" fill="#8581D2"/>
<path fill-rule="evenodd" clip-rule="evenodd" d="M158.045 209.756C157.468 210.081 156.532 210.081 155.955 209.756L149.433 206.088C148.855 205.763 148.856 205.237 149.433 204.912L155.955 201.244C156.532 200.919 157.469 200.919 158.045 201.244L164.567 204.912C165.144 205.237 165.144 205.763 164.567 206.088L158.045 209.756Z" fill="#8581D2"/>
<path fill-rule="evenodd" clip-rule="evenodd" d="M168.045 216.756C167.468 217.081 166.531 217.081 165.955 216.756L159.433 213.088C158.856 212.763 158.856 212.237 159.433 211.912L165.955 208.243C166.532 207.919 167.469 207.919 168.045 208.243L174.567 211.912C175.144 212.237 175.144 212.764 174.567 213.088L168.045 216.756Z" fill="#8581D2"/>
<path fill-rule="evenodd" clip-rule="evenodd" d="M179.045 221.756C178.468 222.081 177.532 222.081 176.955 221.756L170.433 218.088C169.856 217.763 169.856 217.237 170.433 216.912L176.956 213.244C177.533 212.919 178.468 212.919 179.045 213.244L185.567 216.912C186.144 217.237 186.144 217.763 185.567 218.088L179.045 221.756Z" fill="#8581D2"/>
<path fill-rule="evenodd" clip-rule="evenodd" d="M190.045 227.756C189.468 228.081 188.532 228.081 187.955 227.756L181.433 224.088C180.855 223.763 180.856 223.237 181.433 222.912L187.955 219.244C188.532 218.919 189.469 218.919 190.046 219.244L196.567 222.912C197.144 223.238 197.144 223.763 196.567 224.088L190.045 227.756Z" fill="#8581D2"/>
<path fill-rule="evenodd" clip-rule="evenodd" d="M201.045 234.756C200.468 235.081 199.531 235.081 198.955 234.756L192.433 231.088C191.856 230.763 191.856 230.237 192.433 229.912L198.955 226.244C199.532 225.919 200.469 225.919 201.045 226.244L207.567 229.912C208.144 230.237 208.144 230.763 207.567 231.088L201.045 234.756Z" fill="#8581D2"/>
<path fill-rule="evenodd" clip-rule="evenodd" d="M211.045 240.756C210.468 241.081 209.532 241.081 208.955 240.756L202.433 237.088C201.856 236.763 201.856 236.237 202.433 235.912L208.956 232.244C209.533 231.919 210.468 231.919 211.045 232.244L217.567 235.912C218.144 236.238 218.144 236.763 217.567 237.088L211.045 240.756Z" fill="#8581D2"/>
<path fill-rule="evenodd" clip-rule="evenodd" d="M120.045 199.756C119.468 200.081 118.531 200.081 117.955 199.756L111.433 196.088C110.856 195.763 110.856 195.237 111.433 194.912L117.955 191.244C118.532 190.919 119.469 190.919 120.045 191.244L126.567 194.912C127.144 195.237 127.144 195.763 126.567 196.088L120.045 199.756Z" fill="#8581D2"/>
<path fill-rule="evenodd" clip-rule="evenodd" d="M130.045 206.756C129.468 207.081 128.532 207.081 127.955 206.756L121.433 203.088C120.856 202.763 120.856 202.237 121.433 201.912L127.956 198.244C128.533 197.919 129.468 197.919 130.045 198.244L136.567 201.912C137.144 202.237 137.144 202.763 136.567 203.088L130.045 206.756Z" fill="#8581D2"/>
<path fill-rule="evenodd" clip-rule="evenodd" d="M141.045 212.756C140.468 213.081 139.532 213.081 138.955 212.756L132.433 209.088C131.856 208.763 131.856 208.237 132.433 207.912L138.956 204.244C139.532 203.919 140.468 203.919 141.045 204.244L147.567 207.912C148.144 208.237 148.144 208.763 147.567 209.088L141.045 212.756Z" fill="#8581D2"/>
<path fill-rule="evenodd" clip-rule="evenodd" d="M152.045 218.756C151.468 219.081 150.531 219.081 149.955 218.756L143.433 215.088C142.856 214.763 142.856 214.237 143.433 213.912L149.955 210.243C150.532 209.919 151.469 209.919 152.045 210.243L158.567 213.912C159.144 214.237 159.144 214.764 158.567 215.088L152.045 218.756Z" fill="#8581D2"/>
<path fill-rule="evenodd" clip-rule="evenodd" d="M163.045 225.756C162.468 226.081 161.532 226.081 160.955 225.756L154.433 222.088C153.856 221.763 153.856 221.237 154.433 220.912L160.956 217.244C161.532 216.919 162.468 216.919 163.045 217.244L169.567 220.912C170.144 221.237 170.144 221.763 169.567 222.088L163.045 225.756Z" fill="#8581D2"/>
<path fill-rule="evenodd" clip-rule="evenodd" d="M174.045 231.756C173.468 232.081 172.532 232.081 171.955 231.756L165.433 228.088C164.856 227.763 164.856 227.237 165.433 226.912L171.956 223.243C172.532 222.919 173.468 222.919 174.045 223.243L180.567 226.912C181.144 227.237 181.144 227.764 180.567 228.088L174.045 231.756Z" fill="#8581D2"/>
<path fill-rule="evenodd" clip-rule="evenodd" d="M184.045 237.756C183.468 238.081 182.531 238.081 181.955 237.756L175.433 234.088C174.856 233.763 174.856 233.237 175.433 232.912L181.955 229.244C182.532 228.919 183.469 228.919 184.045 229.244L190.567 232.912C191.144 233.237 191.144 233.763 190.567 234.088L184.045 237.756Z" fill="#8581D2"/>
<path fill-rule="evenodd" clip-rule="evenodd" d="M195.045 243.756C194.468 244.081 193.532 244.081 192.955 243.756L186.433 240.088C185.856 239.763 185.856 239.237 186.433 238.912L192.956 235.243C193.533 234.919 194.468 234.919 195.045 235.243L201.567 238.912C202.144 239.237 202.144 239.764 201.567 240.088L195.045 243.756Z" fill="#8581D2"/>
<path fill-rule="evenodd" clip-rule="evenodd" d="M206.045 249.756C205.468 250.081 204.532 250.081 203.955 249.756L197.433 246.088C196.856 245.763 196.856 245.237 197.433 244.912L203.956 241.244C204.532 240.919 205.468 240.919 206.045 241.244L212.567 244.912C213.144 245.237 213.144 245.763 212.567 246.088L206.045 249.756Z" fill="#8581D2"/>
<path fill-rule="evenodd" clip-rule="evenodd" d="M222.045 246.756C221.468 247.081 220.532 247.081 219.955 246.756L213.433 243.088C212.856 242.763 212.856 242.237 213.433 241.912L219.956 238.244C220.532 237.919 221.469 237.919 222.045 238.244L228.567 241.912C229.144 242.237 229.144 242.763 228.567 243.088L222.045 246.756Z" fill="#8581D2"/>
<path fill-rule="evenodd" clip-rule="evenodd" d="M233.045 253.756C232.468 254.081 231.531 254.081 230.955 253.756L224.433 250.088C223.856 249.763 223.856 249.237 224.433 248.912L230.955 245.244C231.532 244.919 232.469 244.919 233.045 245.244L239.567 248.912C240.144 249.237 240.144 249.763 239.567 250.088L233.045 253.756Z" fill="#8581D2"/>
<path fill-rule="evenodd" clip-rule="evenodd" d="M102.924 203.755C102.337 204.082 101.385 204.082 100.798 203.755L83.4398 194.112C82.8529 193.786 82.8536 193.257 83.4405 192.93L90.0754 189.245C90.6631 188.918 91.6149 188.918 92.2025 189.245L109.56 198.888C110.147 199.214 110.147 199.744 109.56 200.069L102.924 203.755Z" fill="#8581D2"/>
<path fill-rule="evenodd" clip-rule="evenodd" d="M162.906 250.75C162.318 251.083 161.363 251.083 160.775 250.75L110.442 222.228C109.853 221.894 109.853 221.353 110.442 221.02L117.094 217.25C117.683 216.917 118.637 216.917 119.226 217.25L169.558 245.772C170.147 246.106 170.147 246.647 169.558 246.98L162.906 250.75Z" fill="#8581D2"/>
<path fill-rule="evenodd" clip-rule="evenodd" d="M108.736 194.733C108.134 195.089 107.156 195.089 106.553 194.733L94.4518 187.582C93.8493 187.225 93.8493 186.648 94.4525 186.292L101.264 182.267C101.867 181.911 102.844 181.911 103.447 182.267L115.548 189.418C116.151 189.774 116.151 190.352 115.548 190.708L108.736 194.733Z" fill="#8581D2"/>
<path fill-rule="evenodd" clip-rule="evenodd" d="M86.7362 206.733C86.1337 207.089 85.1559 207.089 84.5534 206.733L72.4524 199.581C71.8492 199.225 71.8492 198.648 72.4524 198.292L79.2636 194.267C79.8668 193.911 80.844 193.911 81.4472 194.267L93.5481 201.418C94.1506 201.775 94.1506 202.352 93.5481 202.708L86.7362 206.733Z" fill="#8581D2"/>
<path fill-rule="evenodd" clip-rule="evenodd" d="M222.736 259.733C222.133 260.089 221.156 260.089 220.554 259.733L208.452 252.581C207.849 252.225 207.849 251.648 208.452 251.292L215.264 247.267C215.867 246.911 216.844 246.911 217.447 247.267L229.548 254.418C230.151 254.775 230.151 255.352 229.548 255.708L222.736 259.733Z" fill="#8581D2"/>
<path fill-rule="evenodd" clip-rule="evenodd" d="M124.907 178.747C124.33 179.084 123.394 179.084 122.817 178.747L116.433 175.023C115.856 174.686 115.856 174.141 116.433 173.804L119.094 172.253C119.67 171.916 120.606 171.916 121.183 172.253L127.567 175.977C128.144 176.314 128.144 176.859 127.567 177.196L124.907 178.747Z" fill="#8581D2"/>
<path fill-rule="evenodd" clip-rule="evenodd" d="M135.907 184.747C135.33 185.084 134.394 185.084 133.817 184.747L127.433 181.023C126.856 180.686 126.856 180.141 127.433 179.804L130.093 178.253C130.67 177.916 131.606 177.916 132.183 178.253L138.567 181.977C139.144 182.313 139.144 182.859 138.567 183.196L135.907 184.747Z" fill="#8581D2"/>
<path fill-rule="evenodd" clip-rule="evenodd" d="M145.907 190.747C145.33 191.084 144.394 191.084 143.817 190.747L137.433 187.023C136.856 186.686 136.856 186.141 137.433 185.804L140.094 184.253C140.67 183.916 141.606 183.916 142.183 184.253L148.567 187.977C149.144 188.314 149.144 188.859 148.567 189.196L145.907 190.747Z" fill="#8581D2"/>
<path fill-rule="evenodd" clip-rule="evenodd" d="M156.907 197.747C156.33 198.084 155.394 198.084 154.817 197.747L148.433 194.023C147.856 193.687 147.856 193.141 148.433 192.804L151.093 191.253C151.67 190.915 152.606 190.916 153.183 191.253L159.567 194.977C160.144 195.313 160.144 195.859 159.567 196.196L156.907 197.747Z" fill="#8581D2"/>
<path fill-rule="evenodd" clip-rule="evenodd" d="M167.907 203.747C167.33 204.084 166.394 204.084 165.817 203.747L159.433 200.023C158.856 199.686 158.856 199.141 159.433 198.804L162.094 197.253C162.67 196.916 163.606 196.916 164.183 197.253L170.567 200.977C171.144 201.314 171.144 201.859 170.567 202.196L167.907 203.747Z" fill="#8581D2"/>
<path fill-rule="evenodd" clip-rule="evenodd" d="M178.907 209.747C178.33 210.084 177.394 210.084 176.817 209.747L170.433 206.023C169.856 205.687 169.856 205.141 170.433 204.804L173.094 203.253C173.67 202.916 174.607 202.916 175.183 203.253L181.567 206.977C182.144 207.313 182.144 207.859 181.567 208.196L178.907 209.747Z" fill="#8581D2"/>
<path fill-rule="evenodd" clip-rule="evenodd" d="M189.907 216.747C189.33 217.084 188.394 217.084 187.817 216.747L181.433 213.023C180.856 212.686 180.856 212.141 181.433 211.804L184.094 210.253C184.67 209.916 185.606 209.916 186.183 210.253L192.567 213.977C193.144 214.314 193.144 214.859 192.567 215.196L189.907 216.747Z" fill="#8581D2"/>
<path fill-rule="evenodd" clip-rule="evenodd" d="M200.907 222.747C200.33 223.084 199.394 223.084 198.817 222.747L192.433 219.023C191.856 218.687 191.856 218.141 192.433 217.804L195.094 216.253C195.67 215.916 196.607 215.916 197.183 216.253L203.567 219.976C204.144 220.313 204.144 220.859 203.567 221.196L200.907 222.747Z" fill="#8581D2"/>
<path fill-rule="evenodd" clip-rule="evenodd" d="M211.907 228.747C211.329 229.084 210.394 229.084 209.817 228.747L203.433 225.023C202.856 224.686 202.856 224.141 203.433 223.804L206.094 222.253C206.67 221.916 207.606 221.916 208.183 222.253L214.567 225.977C215.144 226.314 215.144 226.859 214.567 227.196L211.907 228.747Z" fill="#8581D2"/>
<path fill-rule="evenodd" clip-rule="evenodd" d="M221.907 234.747C221.33 235.084 220.394 235.084 219.817 234.747L213.433 231.023C212.856 230.687 212.856 230.141 213.433 229.804L216.094 228.253C216.67 227.916 217.607 227.916 218.183 228.253L224.567 231.976C225.144 232.313 225.144 232.859 224.567 233.195L221.907 234.747Z" fill="#8581D2"/>
<path fill-rule="evenodd" clip-rule="evenodd" d="M232.907 240.747C232.329 241.084 231.394 241.084 230.817 240.747L224.433 237.023C223.856 236.686 223.856 236.141 224.433 235.804L227.094 234.253C227.67 233.916 228.606 233.916 229.183 234.253L235.567 237.977C236.144 238.313 236.144 238.859 235.567 239.196L232.907 240.747Z" fill="#8581D2"/>
<path fill-rule="evenodd" clip-rule="evenodd" d="M242.907 246.747C242.33 247.084 241.394 247.084 240.817 246.747L234.433 243.023C233.856 242.687 233.856 242.141 234.433 241.804L237.094 240.253C237.67 239.916 238.606 239.916 239.183 240.253L245.567 243.976C246.144 244.313 246.144 244.859 245.567 245.195L242.907 246.747Z" fill="#8581D2"/>
<path fill-rule="evenodd" clip-rule="evenodd" d="M114.045 209.756C113.468 210.081 112.531 210.081 111.955 209.756L105.433 206.088C104.856 205.763 104.856 205.237 105.433 204.912L111.955 201.243C112.532 200.919 113.469 200.919 114.045 201.243L120.567 204.912C121.144 205.237 121.144 205.764 120.567 206.088L114.045 209.756Z" fill="#8581D2"/>
<path fill-rule="evenodd" clip-rule="evenodd" d="M125.045 215.756C124.468 216.081 123.532 216.081 122.955 215.756L116.433 212.088C115.856 211.763 115.856 211.237 116.433 210.912L122.956 207.244C123.533 206.919 124.468 206.919 125.045 207.244L131.567 210.912C132.144 211.237 132.144 211.763 131.567 212.088L125.045 215.756Z" fill="#8581D2"/>
<path fill-rule="evenodd" clip-rule="evenodd" d="M136.045 221.756C135.468 222.081 134.531 222.081 133.955 221.756L127.433 218.088C126.856 217.763 126.856 217.237 127.433 216.912L133.955 213.243C134.532 212.919 135.469 212.919 136.045 213.243L142.567 216.912C143.144 217.237 143.144 217.764 142.567 218.088L136.045 221.756Z" fill="#8581D2"/>
<path fill-rule="evenodd" clip-rule="evenodd" d="M147.045 227.756C146.468 228.081 145.531 228.081 144.955 227.756L138.433 224.088C137.856 223.763 137.856 223.237 138.433 222.912L144.955 219.244C145.532 218.919 146.469 218.919 147.045 219.244L153.567 222.912C154.144 223.237 154.144 223.763 153.567 224.088L147.045 227.756Z" fill="#8581D2"/>
<path fill-rule="evenodd" clip-rule="evenodd" d="M158.045 234.756C157.468 235.081 156.532 235.081 155.955 234.756L149.433 231.088C148.856 230.763 148.856 230.237 149.433 229.912L155.956 226.243C156.533 225.919 157.468 225.919 158.045 226.243L164.567 229.912C165.144 230.237 165.144 230.764 164.567 231.088L158.045 234.756Z" fill="#8581D2"/>
<path fill-rule="evenodd" clip-rule="evenodd" d="M168.045 240.756C167.468 241.081 166.532 241.081 165.955 240.756L159.433 237.088C158.856 236.763 158.856 236.237 159.433 235.912L165.956 232.244C166.532 231.919 167.469 231.919 168.046 232.244L174.567 235.912C175.144 236.237 175.144 236.763 174.567 237.088L168.045 240.756Z" fill="#8581D2"/>
<path fill-rule="evenodd" clip-rule="evenodd" d="M179.045 246.756C178.468 247.081 177.531 247.081 176.955 246.756L170.433 243.088C169.856 242.763 169.856 242.237 170.433 241.912L176.955 238.244C177.532 237.919 178.469 237.919 179.045 238.244L185.567 241.912C186.144 242.238 186.144 242.763 185.567 243.088L179.045 246.756Z" fill="#8581D2"/>
<path fill-rule="evenodd" clip-rule="evenodd" d="M190.045 253.756C189.468 254.081 188.532 254.081 187.955 253.756L181.433 250.088C180.856 249.763 180.856 249.237 181.433 248.912L187.956 245.244C188.533 244.919 189.468 244.919 190.045 245.244L196.567 248.912C197.144 249.237 197.144 249.763 196.567 250.088L190.045 253.756Z" fill="#8581D2"/>
<path fill-rule="evenodd" clip-rule="evenodd" d="M211.924 265.755C211.337 266.082 210.385 266.082 209.798 265.755L192.44 256.112C191.853 255.786 191.853 255.257 192.44 254.93L199.076 251.245C199.663 250.918 200.615 250.918 201.202 251.245L218.56 260.888C219.147 261.214 219.147 261.743 218.559 262.069L211.924 265.755Z" fill="#8581D2"/>
<path fill-rule="evenodd" clip-rule="evenodd" d="M175.568 256.763C174.981 257.079 174.027 257.079 173.44 256.763L165.441 252.455C164.853 252.139 164.853 251.626 165.441 251.309L167.433 250.237C168.02 249.921 168.973 249.921 169.561 250.237L177.559 254.545C178.147 254.861 178.147 255.374 177.559 255.691L175.568 256.763Z" fill="#8581D2"/>
<path fill-rule="evenodd" clip-rule="evenodd" d="M193.567 261.763C192.98 262.079 192.027 262.079 191.439 261.763L183.441 257.456C182.853 257.139 182.853 256.626 183.441 256.31L185.433 255.238C186.02 254.921 186.973 254.921 187.561 255.238L195.559 259.544C196.147 259.861 196.147 260.374 195.559 260.69L193.567 261.763Z" fill="#8581D2"/>
<path fill-rule="evenodd" clip-rule="evenodd" d="M187.568 264.763C186.98 265.079 186.027 265.079 185.44 264.763L177.441 260.456C176.853 260.139 176.853 259.626 177.441 259.31L179.433 258.238C180.02 257.921 180.973 257.921 181.561 258.238L189.559 262.545C190.147 262.861 190.147 263.374 189.559 263.691L187.568 264.763Z" fill="#8581D2"/>
<path fill-rule="evenodd" clip-rule="evenodd" d="M200.567 271.763C199.98 272.079 199.027 272.079 198.439 271.763L190.441 267.456C189.853 267.139 189.853 266.626 190.441 266.31L192.433 265.238C193.02 264.921 193.973 264.921 194.561 265.238L202.559 269.544C203.147 269.861 203.147 270.374 202.559 270.69L200.567 271.763Z" fill="#8581D2"/>
<path fill-rule="evenodd" clip-rule="evenodd" d="M243.95 258.342L241.05 259.869C240.47 260.174 240 259.927 240 259.317C240 258.706 240.47 257.963 241.05 257.657L243.95 256.131C244.53 255.826 245 256.073 245 256.684C245 257.294 244.53 258.036 243.95 258.342Z" fill="#2B2873"/>
<path fill-rule="evenodd" clip-rule="evenodd" d="M244.449 256C244.538 256.115 244.593 256.271 244.593 256.47C244.593 257.081 244.109 257.826 243.513 258.131L240.529 259.662C240.336 259.761 240.157 259.797 240 259.786C240.186 260.027 240.533 260.077 240.936 259.871L243.92 258.341C244.517 258.034 245 257.29 245 256.678C245 256.265 244.777 256.023 244.449 256Z" fill="#5E58E8"/>
<path fill-rule="evenodd" clip-rule="evenodd" d="M244 257.689L241 260V259.311L244 257V257.689Z" fill="#7D79E8"/>
<path fill-rule="evenodd" clip-rule="evenodd" d="M240 258.78L240.478 259L244 257.372L243.196 257L240.766 258.123C240.465 258.263 240.194 258.504 240 258.78Z" fill="#5650D4"/>
<path fill-rule="evenodd" clip-rule="evenodd" d="M240.079 259.549L240.922 260V259.313L240.336 259C240.229 259.176 240.141 259.362 240.079 259.549Z" fill="#403AB5"/>
<path fill-rule="evenodd" clip-rule="evenodd" d="M248.95 256.342L246.05 257.869C245.47 258.174 245 257.927 245 257.317C245 256.706 245.47 255.963 246.05 255.657L248.95 254.131C249.53 253.826 250 254.073 250 254.684C250 255.294 249.53 256.036 248.95 256.342Z" fill="#2B2873"/>
<path fill-rule="evenodd" clip-rule="evenodd" d="M249.448 254C249.537 254.115 249.592 254.271 249.592 254.47C249.592 255.081 249.108 255.826 248.512 256.131L245.529 257.662C245.335 257.761 245.157 257.797 245 257.786C245.185 258.027 245.533 258.077 245.935 257.871L248.919 256.341C249.516 256.034 250 255.29 250 254.678C250 254.265 249.776 254.023 249.448 254Z" fill="#5E58E8"/>
<path fill-rule="evenodd" clip-rule="evenodd" d="M249 254.689L246 257V256.311L249 254V254.689Z" fill="#7D79E8"/>
<path fill-rule="evenodd" clip-rule="evenodd" d="M246 255.78L246.478 256L250 254.372L249.195 254L246.765 255.123C246.465 255.263 246.194 255.504 246 255.78Z" fill="#5650D4"/>
<path fill-rule="evenodd" clip-rule="evenodd" d="M245.078 256.549L245.922 257V256.313L245.336 256C245.229 256.176 245.141 256.362 245.078 256.549Z" fill="#403AB5"/>
<path fill-rule="evenodd" clip-rule="evenodd" d="M122 154.084C122 154.084 132.575 77.1863 136.209 51.6623C136.46 49.8963 137.723 48.1902 139.459 47.4228C140.816 46.8229 142.462 46.7973 144.141 47.7651C176.998 66.7074 242.572 104.423 275.582 123.548C279.34 125.724 281.472 131.457 280.911 135.329C277.196 160.934 270.223 212.023 266.702 237.751C266.471 239.44 265.38 241.01 263.885 241.671C262.807 242.148 261.517 242.151 260.19 241.382C227.359 222.385 128.748 165.6 128.748 165.6L122 154.084Z" fill="#EAE9FB"/>
<path fill-rule="evenodd" clip-rule="evenodd" d="M210.923 88.894C210.711 89.8821 210.126 90.2826 209.616 89.7881C209.106 89.2945 208.865 88.094 209.077 87.106C209.289 86.1179 209.874 85.7174 210.384 86.2119C210.894 86.7055 211.135 87.9069 210.923 88.894Z" fill="#302D80"/>
<path fill-rule="evenodd" clip-rule="evenodd" d="M125 152.506C125 152.506 134.858 81.0497 138.246 57.3322C138.481 55.6914 139.657 54.1055 141.276 53.3928C142.541 52.8356 144.076 52.8114 145.641 53.711C176.272 71.3126 242.175 109.159 272.949 126.93C276.452 128.953 278.441 134.28 277.917 137.877C274.453 161.671 267.954 209.145 264.671 233.051C264.456 234.621 263.438 236.08 262.045 236.694C261.039 237.137 259.837 237.14 258.599 236.426C227.994 218.773 131.291 163.206 131.291 163.206L125 152.506Z" fill="#302D80"/>
<path fill-rule="evenodd" clip-rule="evenodd" d="M128 151.998C128 151.998 137.559 82.3432 140.844 59.2232C141.071 57.6239 142.212 56.0782 143.782 55.3829C145.008 54.8398 146.496 54.8163 148.013 55.6924C177.714 72.8512 241.615 109.744 271.455 127.068C274.851 129.039 277.564 133.761 276.899 138.553C273.669 161.844 267.239 208.023 264.055 231.328C263.847 232.858 262.861 234.281 261.509 234.879C260.535 235.311 258.741 234.499 257.54 233.803C227.865 216.595 134.1 162.429 134.1 162.429L128 151.998Z" fill="#B8B5FF"/>
<path fill-rule="evenodd" clip-rule="evenodd" d="M277.56 122.745C244.413 103.57 178.57 65.7584 145.577 46.7667C143.891 45.7963 142.238 45.8228 140.875 46.4242L139 47.2515C140.363 46.6501 142.016 46.6244 143.701 47.5947C176.694 66.5858 242.537 104.398 275.685 123.573C279.458 125.755 281.599 131.503 281.035 135.384C277.304 161.055 270.304 212.276 266.767 238.07C266.535 239.764 265.44 241.338 263.939 242L265.815 241.173C267.315 240.51 268.411 238.936 268.643 237.242C272.179 211.448 279.18 160.227 282.91 134.556C283.475 130.675 281.333 124.928 277.56 122.745Z" fill="#9792E8"/>
<path fill-rule="evenodd" clip-rule="evenodd" d="M223.862 130.046C218.741 127.125 212.759 125.45 206.901 126.164L186.18 163.237C171.967 162.851 157.956 167.866 144.534 174.765C130.8 181.822 117.678 190.832 105.609 197.97C87.7378 208.535 69.8653 219.1 52 229.665L141.345 281C182.963 255.837 209.04 240.579 209.04 240.579C216.128 235.367 222.536 229.311 228.822 223.186C228.884 223.119 228.967 223.07 229.012 222.998C234.65 214.082 246.042 194.643 249.694 184.639C250.712 182.396 251.375 179.977 251.708 177.538C254.271 158.75 239.552 138.995 223.862 130.046Z" fill="#7974F2"/>
<path fill-rule="evenodd" clip-rule="evenodd" d="M180.119 4.97504C178.829 4.71639 177.889 3.99019 178.018 3.35565C178.147 2.72183 179.296 2.42623 180.587 2.69056C181.871 2.94921 182.811 3.67612 182.688 4.30995C182.559 4.93809 181.41 5.24008 180.119 4.97504ZM208.749 26.6161C208.184 23.6054 206.783 20.8164 205.259 18.1632C202.881 14.0255 200.109 10.0485 196.539 6.88363C185.901 -2.54846 170.103 -2.01908 159.3 6.8282C155.226 10.165 151.975 14.4071 149.511 19.0493C148.245 21.4446 145.314 26.5173 145.025 30.2912C144.933 31.4245 145.087 32.4463 145.597 33.2343C146.273 34.281 147.336 35.0079 148.386 35.6787C152.154 38.0797 156.16 40.0991 160.327 41.7C166.773 44.1813 173.034 45.4433 179.99 44.8585C183.062 44.5999 186.099 44.0762 189.103 43.3869C191.795 42.7837 194.45 42.0511 197.092 41.2751C200.908 40.1546 204.989 38.7384 207.237 35.4513C208.97 32.9018 209.315 29.6204 208.749 26.6161Z" fill="#E04428"/>
<path fill-rule="evenodd" clip-rule="evenodd" d="M189 44.1439C185.667 49.2787 180.828 53.4316 175.269 56.0204C173.194 56.991 171.019 57.7384 168.782 58.2391C163.069 59.5185 157.028 59.1598 151.476 57.349C149.661 56.7564 147.833 56.0204 146.123 55.094C145.292 54.6547 144.499 54.1733 143.743 53.6412C141.5 52.0658 139.028 51.4725 136.562 50.2244C134.74 49.3101 132.837 47.7404 133.011 45.7071C133.116 44.5268 133.922 43.5448 134.684 42.6362C137.974 38.7551 141.271 34.8811 144.555 31C144.462 32.1375 144.617 33.1631 145.131 33.954C145.812 35.0045 146.884 35.7341 147.944 36.4073C151.742 38.8171 155.782 40.844 159.983 42.4508C166.483 44.9412 172.797 46.2078 179.811 45.6208C182.909 45.3612 185.97 44.8356 189 44.1439Z" fill="#C7381E"/>
<path fill-rule="evenodd" clip-rule="evenodd" d="M206.81 43.5552C206.538 45.4249 205.951 47.2445 205.307 49.0263C203.755 53.3398 201.798 57.665 198.453 60.8071C196.294 62.8411 193.599 64.2951 190.721 65C190.531 63.426 190.133 61.8898 189.477 60.4481C189.553 60.2781 189.635 60.108 189.742 59.9569C190.014 59.5667 190.203 59.0943 190.638 59.2702C191.926 59.7992 193.378 59.781 194.735 59.4846C196.591 59.0754 197.935 58.4709 199.153 57.0669C200.466 55.562 201.514 54.0767 201.861 52.0551C202.101 50.6446 201.868 48.9507 200.649 48.1892C199.848 47.6914 198.8 47.7357 197.916 48.0693C197.033 48.397 196.269 48.9893 195.518 49.5553C191.478 52.5841 187.129 55.3106 182.326 56.8591C180.647 57.407 178.873 57.8038 177.119 57.5705C175.982 57.4201 174.859 56.9601 174 56.2167C179.662 53.5789 184.592 49.3475 187.987 44.1155C190.753 43.4985 193.479 42.7493 196.193 41.9558C200.113 40.8098 204.304 39.3616 206.614 36C206.961 38.499 207.175 41.0431 206.81 43.5552Z" fill="#874021"/>
<path fill-rule="evenodd" clip-rule="evenodd" d="M202.917 52.0912C202.573 54.0419 201.537 55.4764 200.239 56.9292C199.034 58.2844 197.704 58.868 195.869 59.2629C194.527 59.5484 193.091 59.5666 191.818 59.056C191.388 58.8862 191.2 59.3422 190.932 59.7189C190.826 59.8648 190.744 60.0289 190.669 60.193C190.557 60.4421 190.476 60.7093 190.388 60.9766C190.295 61.2684 190.189 61.5483 190.076 61.8338C188.029 67.2062 183.76 71.7349 178.435 74.1535C175.301 75.5754 172.117 76.8885 168.934 78.1953C168.734 78.2802 168.534 78.3658 168.335 78.4506C167.666 78.7361 167.012 79.0279 166.35 79.3078C164.333 80.1769 162.304 80.9422 159.989 80.9969C157.56 81.058 154.995 80.2071 153.559 78.3047C152.866 77.3809 152.492 76.3056 152.286 75.1868C152.179 74.6403 152.117 74.0805 152.08 73.5278C152.073 73.4485 152.067 73.3637 152.061 73.2844C151.936 71.4003 151.743 69.5709 151.462 67.6931C151.374 67.0975 151.274 66.4655 150.869 66.0096C150.45 65.5354 149.782 65.353 149.259 64.9882C148.116 64.204 147.779 62.4959 148.553 61.3596C147.429 59.4207 146.568 57.3486 146 55.1965C147.723 56.1084 149.564 56.8317 151.393 57.4153C156.986 59.1963 163.072 59.5484 168.828 58.2907C171.081 57.7983 173.272 57.0624 175.363 56.1084C176.212 56.826 177.323 57.2694 178.447 57.4153C180.183 57.6404 181.936 57.2574 183.597 56.7285C188.347 55.233 192.648 52.6019 196.643 49.6782C197.386 49.131 198.142 48.56 199.015 48.2437C199.89 47.9217 200.926 47.8789 201.718 48.3594C202.923 49.0946 203.154 50.7297 202.917 52.0912Z" fill="#FFAF75"/>
<path fill-rule="evenodd" clip-rule="evenodd" d="M189.61 65.4573C189.024 67.3494 187.895 69.0261 186.716 70.622C184.289 73.9069 181.556 76.9961 178.337 79.4871C177.089 80.4455 175.755 81.3217 174.251 81.7445C174.226 81.7569 174.201 81.7634 174.176 81.77C173.366 81.9905 172.492 82.0596 171.662 81.9461C170.92 81.8391 170.215 81.5801 169.603 81.1456C168.674 80.4834 168.05 79.3605 168 78.2325C168.199 78.1437 168.4 78.0557 168.599 77.9676C171.781 76.6119 174.962 75.2496 178.094 73.7745C183.415 71.2646 187.683 66.5671 189.729 61C190.153 62.4249 190.053 64.0193 189.61 65.4573Z" fill="#F59451"/>
<path fill-rule="evenodd" clip-rule="evenodd" d="M159 125.684C158.067 127.26 156.931 128.722 155.622 130L136 112.829C136.861 106.085 138.336 99.4126 140.745 93.0524C143.377 86.0887 147.175 79.4942 152.266 74C152.303 74.5608 152.368 75.1216 152.476 75.6752C150.842 80.772 150.14 86.3017 152.006 91.2777C152.556 92.7471 153.322 94.1526 153.662 95.6788C154.103 97.6309 153.814 99.6398 153.467 101.613C153.402 102.018 153.322 102.422 153.257 102.834C152.512 107.079 152.107 111.523 153.424 115.64C154.255 118.202 155.68 120.467 157.134 122.724C157.77 123.704 158.407 124.683 159 125.684Z" fill="#E04428"/>
<path fill-rule="evenodd" clip-rule="evenodd" d="M191.851 69.1923C191.776 69.8221 191.676 70.4392 191.558 71.0505C190.767 75.0143 189.072 78.7429 187.39 82.4288C185.726 86.084 184.044 89.7692 181.652 93.004C181.272 93.5163 180.748 94.0721 180.113 93.9923C178.685 93.8128 179.234 91.6274 179.023 90.6834C178.723 89.3866 178.193 88.1268 177.471 87.0096C176.386 87.343 175.309 87.6701 174.225 88.0036C174.038 88.0655 173.839 88.1204 173.645 88.1332C173.508 88.1453 173.378 88.1332 173.253 88.0841C172.797 87.9173 172.617 87.3865 172.511 86.9105C172.156 85.3608 171.988 83.7683 172.001 82.1815C172.829 82.2927 173.701 82.225 174.511 82.0091C174.536 82.0027 174.561 81.9963 174.586 81.9842C176.088 81.5709 177.421 80.7123 178.667 79.7739C181.882 77.3357 184.611 74.3103 187.035 71.094C188.212 69.5321 189.34 67.8898 189.925 66.0372C190.368 64.63 190.467 63.0681 190.044 61.673C190.156 61.3766 190.263 61.0923 190.355 60.7959C190.443 60.5244 190.524 60.2529 190.636 60C191.284 61.4136 191.676 62.9199 191.863 64.4632C192.057 66.0187 192.038 67.6183 191.851 69.1923Z" fill="#C7381E"/>
<path fill-rule="evenodd" clip-rule="evenodd" d="M174 88.6789C173.784 91.8762 173.155 95.0426 172.138 98.0586C171.575 99.7411 170.886 101.38 170.09 102.958C169.868 103.4 169.431 104.722 168.976 104.927C168.395 105.195 168.131 104.683 168.173 104.117C168.497 99.8224 169.012 95.5346 168.976 91.2339C168.946 87.364 168.443 83.4316 167 79.879C167.635 79.592 168.263 79.2928 168.904 79C168.952 80.1156 169.551 81.2248 170.443 81.8794C171.03 82.3095 171.706 82.5649 172.419 82.6706C172.407 84.2725 172.569 85.8801 172.91 87.4446C173.012 87.9251 173.185 88.461 173.623 88.6293C173.742 88.6789 173.868 88.6912 174 88.6789Z" fill="#F2F3FF"/>
<path fill-rule="evenodd" clip-rule="evenodd" d="M216.67 108.236C216.641 108.029 216.59 107.829 216.547 107.629C215.771 104.468 212.623 102.796 210.675 100.179C210.373 99.7642 210.006 99.4353 209.589 99.1564C209.668 96.8114 208.842 94.445 207.577 92.4359C206.045 90.0051 203.925 88.0104 201.826 86.0372C199.885 84.2141 197.937 82.3838 195.982 80.5535C195.393 80.003 194.796 79.4382 194.063 79.0736C192.561 78.3301 190.649 79.0093 190.742 80.9253C190.799 81.9477 191.454 82.8414 192.165 83.5921C193.955 85.4795 196.176 86.9094 198.318 88.3965C200.467 89.8764 202.595 91.4851 204.069 93.6299C205.039 95.0312 205.693 96.7042 205.801 98.3843C205.391 98.4201 204.982 98.5058 204.601 98.6202C202.459 99.2565 200.69 100.729 198.994 102.159C196.787 104.011 194.53 105.934 193.279 108.522C192.244 110.66 191.993 113.098 191.08 115.293C190.296 117.173 189.06 118.825 188.097 120.619C187.428 121.856 186.896 123.136 186.472 124.444C185.401 122.035 184.74 119.447 184.539 116.823C179.744 119.089 173.907 118.846 169.357 116.115C168.631 119.969 168.818 123.979 169.896 127.754C170.4 129.499 171.147 131.258 172.578 132.373C173.455 133.059 174.526 133.445 175.597 133.746C178.587 134.568 181.764 134.754 184.833 134.275C184.373 140.974 184.575 147.894 182.03 154L160.329 134.754C160.307 134.182 160.272 133.603 160.214 133.031C159.998 130.85 159.826 128.662 158.791 126.71C158.561 126.282 158.309 125.845 158.058 125.416C157.468 124.408 156.836 123.422 156.203 122.435C156.943 123.2 157.72 123.972 158.496 124.623C158.87 124.937 159.236 125.216 159.603 125.459C159.524 124.673 159.387 123.901 159.229 123.114C158.963 121.785 158.654 120.44 158.554 119.061C158.331 116.015 158.352 112.948 158.633 109.909C155.484 108.036 153.242 104.754 152.559 101.173C152.904 99.185 153.191 97.1617 152.753 95.1956C152.415 93.6585 151.653 92.2429 151.107 90.763C149.252 85.7512 149.949 80.1818 151.574 75.0484C151.775 76.1924 152.149 77.2862 152.839 78.23C154.277 80.1675 156.836 81.0326 159.258 80.9754C161.565 80.9182 163.592 80.1389 165.605 79.2523C167.107 82.7842 167.625 86.6878 167.661 90.5342C167.697 94.8096 167.158 99.0707 166.827 103.339C166.784 103.904 167.057 104.411 167.661 104.147C168.135 103.939 168.588 102.631 168.818 102.188C169.645 100.622 170.364 98.992 170.946 97.319C172.003 94.3234 172.657 91.1776 172.887 87.9961C173.081 87.9818 173.275 87.9318 173.462 87.8674C174.547 87.5314 175.625 87.2025 176.711 86.8665C177.43 87.989 177.961 89.2544 178.256 90.5556C178.472 91.5065 177.926 93.6943 179.349 93.873C179.981 93.9588 180.506 93.4011 180.887 92.8864C183.281 89.6405 184.963 85.9371 186.623 82.2694C188.305 78.5731 190.002 74.834 190.792 70.8589C190.907 70.244 191.008 69.622 191.08 69C194.034 71.4666 196.866 74.0976 200.216 76.0422C203.875 78.1656 206.426 81.4401 208.885 84.8075C213.737 91.4779 218.28 99.8213 216.67 108.236Z" fill="#303CA6"/>
<path fill-rule="evenodd" clip-rule="evenodd" d="M215.396 141.47C215.371 142.009 215.371 142.548 215.402 143.081C216.644 144.353 216.815 146.461 216.651 148.29C216.002 155.513 212.304 162.616 206.458 167.037C203.898 168.971 199.204 171.035 196.026 171.419C192.205 172.672 184.157 174.404 186.383 171.062C186.761 170.504 205.208 159.659 205.548 159.076C207.44 155.834 209.42 153.498 210.158 149.834C210.524 147.992 211.455 146.126 211.556 144.254C211.638 142.697 212.149 141.203 212.344 139.641C213.353 131.717 214.652 123.83 216.254 116C217.881 120.303 218.392 125.003 217.698 129.541C217.351 131.804 216.714 134.055 216.198 136.305C215.799 138.029 215.472 139.746 215.396 141.47Z" fill="#303CA6"/>
<path fill-rule="evenodd" clip-rule="evenodd" d="M218.996 149.839C218.909 153.493 217.447 156.996 215.587 160.171C213.117 164.366 209.851 168.172 205.733 170.861C201.994 173.296 194.376 175.099 189.897 174.996L189 173.069C190.623 172.244 188.818 171.487 190.286 170.412C198.872 170.85 204.097 167.729 206.622 165.835C212.389 161.506 216.184 154.75 216.825 147.678C216.986 145.886 216.818 143.823 215.593 142.578C215.562 142.056 215.562 141.528 215.587 141C217.951 143.227 219.077 146.597 218.996 149.839Z" fill="#151E63"/>
<path fill-rule="evenodd" clip-rule="evenodd" d="M216.374 114.109C216.313 114.407 216.258 114.705 216.198 115.003C214.65 122.846 213.395 130.744 212.42 138.68C212.232 140.244 211.738 141.74 211.659 143.299C211.561 145.175 211.391 147.025 211.038 148.869C208.508 161.894 198.765 172.357 187.749 176L183 153.793C185.492 147.671 185.297 140.734 185.748 134.022C185.979 130.638 186.369 127.31 187.35 124.168C187.764 122.852 188.282 121.573 188.934 120.331C189.879 118.53 191.091 116.878 191.853 114.991C192.748 112.793 192.998 110.346 194.009 108.204C195.228 105.614 197.439 103.683 199.596 101.827C201.259 100.393 202.99 98.9206 205.079 98.2814C205.457 98.1631 205.853 98.0829 206.255 98.0449C207.553 97.8901 208.905 98.1323 209.959 98.821C210.368 99.0948 210.727 99.4302 211.026 99.8401C212.926 102.467 216.009 104.143 216.764 107.31C216.813 107.515 216.856 107.713 216.886 107.918C217.209 109.961 216.783 112.072 216.374 114.109Z" fill="#E04428"/>
<path fill-rule="evenodd" clip-rule="evenodd" d="M209.994 99C208.909 98.292 207.516 98.043 206.179 98.2021C206.072 96.4722 205.413 94.7482 204.434 93.2998C202.947 91.091 200.806 89.4311 198.641 87.9053C196.482 86.3735 194.242 84.9052 192.44 82.958C191.725 82.1858 191.06 81.2664 191.003 80.2069C190.909 78.2339 192.836 77.5384 194.355 78.3046C195.089 78.6745 195.691 79.2558 196.288 79.8297C198.252 81.7136 200.216 83.5967 202.175 85.4791C204.29 87.5096 206.424 89.5652 207.968 92.0738C209.241 94.1426 210.076 96.5805 209.994 99Z" fill="#C7381E"/>
<path fill-rule="evenodd" clip-rule="evenodd" d="M186 125.141C185.029 128.204 184.643 131.448 184.413 134.747C181.44 135.213 178.363 135.032 175.461 134.227C174.424 133.936 173.392 133.555 172.541 132.889C171.154 131.8 170.43 130.075 169.942 128.374C168.898 124.687 168.717 120.765 169.423 117C173.827 119.669 179.479 119.905 184.124 117.69C184.323 120.256 184.963 122.786 186 125.141Z" fill="#252F82"/>
<path fill-rule="evenodd" clip-rule="evenodd" d="M160 125C159.631 124.76 159.261 124.484 158.885 124.173C158.103 123.53 157.321 122.767 156.575 122.011C155.119 119.765 153.693 117.511 152.86 114.961C151.542 110.863 151.947 106.44 152.693 102.215C152.758 101.805 152.838 101.403 152.903 101C153.591 104.54 155.851 107.782 159.022 109.634C158.74 112.636 158.718 115.667 158.943 118.677C159.044 120.04 159.355 121.369 159.623 122.683C159.783 123.46 159.92 124.223 160 125Z" fill="#252F82"/>
<path fill-rule="evenodd" clip-rule="evenodd" d="M240.285 181.024C239.499 184.249 237.678 187.628 234.47 188.57C226.753 190.836 219.184 183.455 211.202 182.452C208.135 182.064 205.026 182.286 201.949 181.997C197.186 181.541 192.652 179.873 188.199 178.107L188 175.507C192.459 175.611 202.456 173.872 206.178 171.403C210.279 168.677 213.53 164.818 215.989 160.565C217.841 157.345 219.296 153.794 219.382 150.089C219.463 146.802 218.342 143.386 215.989 141.127C216.063 139.415 216.385 137.711 216.776 136C220.956 136.388 224.814 138.745 227.701 141.817C230.736 145.047 232.835 149.03 234.755 153.025C236.86 157.401 238.811 161.888 239.957 166.603C241.109 171.324 241.431 176.303 240.285 181.024Z" fill="#252F82"/>
<path fill-rule="evenodd" clip-rule="evenodd" d="M181.989 5.07808C181.851 5.83871 180.627 6.2044 179.252 5.88346C177.877 5.57026 176.875 4.69088 177.013 3.92251C177.15 3.15499 178.374 2.79705 179.75 3.11713C181.118 3.43033 182.119 4.31057 181.989 5.07808Z" fill="#303CA6"/>
<path fill-rule="evenodd" clip-rule="evenodd" d="M193.057 81.1942C193.134 81.5253 193.296 81.817 193.468 82.0901C193.848 82.6927 194.29 83.2365 194.781 83.7037C194.918 83.8332 195.065 83.9609 195.235 83.9929C195.563 84.0534 195.875 83.7206 195.964 83.3306C196.053 82.9415 195.966 82.5229 195.83 82.154C195.496 81.2471 194.913 80.6748 194.218 80.2075C193.547 79.7562 192.783 80.0218 193.057 81.1942Z" fill="#F2F3FF"/>
<path fill-rule="evenodd" clip-rule="evenodd" d="M175.297 123.539C174.975 123.936 174.916 124.492 175.115 124.951C175.315 125.412 175.755 125.768 176.265 125.922C176.593 126.021 176.964 126.038 177.274 125.898C177.926 125.605 178.127 124.751 177.925 124.151C177.74 123.599 177.237 123.201 176.649 123.034C176.169 122.898 175.582 123.188 175.297 123.539Z" fill="#F2F3FF"/>
<path fill-rule="evenodd" clip-rule="evenodd" d="M153.02 109.646C152.984 110.222 152.97 110.814 153.218 111.356C153.357 111.659 153.636 111.972 154.046 111.998C154.342 112.018 154.629 111.871 154.788 111.674C154.946 111.476 154.996 111.236 155 111.002C155.009 110.406 154.731 109.815 154.247 109.357C154.063 109.182 153.868 108.975 153.551 109.002C153.121 109.041 153.038 109.365 153.02 109.646Z" fill="#F2F3FF"/>
<path fill-rule="evenodd" clip-rule="evenodd" d="M127.999 217L63 179.442L63.0014 121L128 158.559L127.999 217Z" fill="#FFD696"/>
<path fill-rule="evenodd" clip-rule="evenodd" d="M128 160L63 122.467L63.0007 121L128 158.533V160Z" fill="#D9933B"/>
<path fill-rule="evenodd" clip-rule="evenodd" d="M91 193L65 177.757V161L91 176.243V193Z" fill="white"/>
<path fill-rule="evenodd" clip-rule="evenodd" d="M69 179L67 178.233V165L69 165.767V179Z" fill="#4A4A4A"/>
<path fill-rule="evenodd" clip-rule="evenodd" d="M69.9895 173L69.0105 172.613V165L69.9895 165.387V173Z" fill="#4A4A4A"/>
<path fill-rule="evenodd" clip-rule="evenodd" d="M72 174L71 173.433V166L72 166.567V174Z" fill="#4A4A4A"/>
<path fill-rule="evenodd" clip-rule="evenodd" d="M74 176L72 175.169L72.001 167L74 167.83V176Z" fill="#4A4A4A"/>
<path fill-rule="evenodd" clip-rule="evenodd" d="M74.9895 177L74.0105 176.613V169L74.9895 169.387V177Z" fill="#4A4A4A"/>
<path fill-rule="evenodd" clip-rule="evenodd" d="M78.9895 179L78.0105 178.613V171L78.9895 171.387V179Z" fill="#4A4A4A"/>
<path fill-rule="evenodd" clip-rule="evenodd" d="M82.9895 181L82.0105 180.613V173L82.9895 173.387V181Z" fill="#4A4A4A"/>
<path fill-rule="evenodd" clip-rule="evenodd" d="M84 182L83 181.433L83.0007 174L84 174.567V182Z" fill="#4A4A4A"/>
<path fill-rule="evenodd" clip-rule="evenodd" d="M85.9895 183L85.0105 182.613V175L85.9895 175.387V183Z" fill="#4A4A4A"/>
<path fill-rule="evenodd" clip-rule="evenodd" d="M89 184L87 183.169L87.001 175L89 175.831V184Z" fill="#4A4A4A"/>
<path fill-rule="evenodd" clip-rule="evenodd" d="M82 181L80 179.918V172L82 173.082V181Z" fill="#4A4A4A"/>
<path fill-rule="evenodd" clip-rule="evenodd" d="M78 184L76 183.233L76.001 170L78 170.767V184Z" fill="#4A4A4A"/>
<path fill-rule="evenodd" clip-rule="evenodd" d="M91 191L89 190.233V177L91 177.767V191Z" fill="#4A4A4A"/>
<path fill-rule="evenodd" clip-rule="evenodd" d="M119.964 202.292C120.087 202.117 120.287 202.084 120.5 202.205C120.712 202.327 120.913 202.589 121.036 202.906L121.282 203.539L120.872 203.718L122.465 205.666L122.301 203.095L121.885 203.276L121.639 202.643C121.378 201.969 120.952 201.413 120.5 201.154C120.048 200.896 119.622 200.965 119.361 201.339L118.461 202.625L119.064 203.579L119.964 202.292ZM123.816 208.122L122.817 205.551L122.213 205.814L123.212 208.385C123.005 208.838 121.859 208.183 121.859 208.183V207.468L120.341 207.845L121.859 209.958V209.234L123.005 209.889C123.378 210.103 123.717 210.004 123.888 209.63C124.06 209.257 124.032 208.678 123.816 208.122ZM117.769 205.648C117.788 205.283 118.082 204.862 118.082 204.862L118.493 205.51L118.656 203.126L117.064 203.252L117.479 203.908L117.185 204.33C116.968 204.639 116.94 205.185 117.112 205.755C117.283 206.325 117.622 206.812 117.996 207.025L120.146 208.255V207.204L117.996 205.974C117.899 205.919 117.813 205.794 117.769 205.648Z" fill="#CD8D3E"/>
<path fill-rule="evenodd" clip-rule="evenodd" d="M114 194L109 190.678V190L114 193.323V194Z" fill="#CD8D3E"/>
<path fill-rule="evenodd" clip-rule="evenodd" d="M110 190L109.003 189.577L109 185L109.997 185.423L110 190Z" fill="#CD8D3E"/>
<path fill-rule="evenodd" clip-rule="evenodd" d="M111 187L109.499 184L108 185.657L111 187Z" fill="#CD8D3E"/>
<path fill-rule="evenodd" clip-rule="evenodd" d="M113 192L112.003 191.577L112 187L112.997 187.423L113 192Z" fill="#CD8D3E"/>
<path fill-rule="evenodd" clip-rule="evenodd" d="M114 189L112.499 186L111 187.657L114 189Z" fill="#CD8D3E"/>
<path fill-rule="evenodd" clip-rule="evenodd" d="M119.735 191C119.468 191.132 119.447 196.928 119.447 196.928C119.447 197.128 119.397 197.567 118.946 197.339C118.64 197.184 118.331 196.823 118.333 196.364C118.334 196.217 118.215 196.037 118.069 195.963C117.799 196.881 118.374 197.584 118.944 197.872C119.561 198.184 119.977 197.912 119.979 197.196L120 191.401C120.001 191.254 119.881 191.074 119.735 191Z" fill="#CD8D3E"/>
<path fill-rule="evenodd" clip-rule="evenodd" d="M120.008 190.51C120.772 190.977 122.416 192.282 123 195C122.769 194.539 122.279 194.221 121.975 194.386C121.669 193.841 121.251 193.573 120.92 193.738C120.636 193.224 120.35 193.036 120.096 193.028C119.652 192.611 119.366 192.45 119.08 192.615C118.751 192.048 118.333 191.806 118.025 191.975C117.723 191.442 117.233 191.161 117 191.338C117.598 189.342 119.244 190.043 120.008 190.51Z" fill="#CD8D3E"/>
<path fill-rule="evenodd" clip-rule="evenodd" d="M123.841 191.855C123.672 192.036 123.372 192.049 123.17 191.885C122.968 191.721 122.943 191.441 123.112 191.26C123.281 191.08 124 191 124 191C124 191 124.012 191.675 123.841 191.855Z" fill="#CD8D3E"/>
<path fill-rule="evenodd" clip-rule="evenodd" d="M121.841 191.855C121.672 192.036 121.372 192.049 121.17 191.885C120.968 191.721 120.943 191.441 121.112 191.26C121.281 191.08 122 191 122 191C122 191 122.011 191.675 121.841 191.855Z" fill="#CD8D3E"/>
<path fill-rule="evenodd" clip-rule="evenodd" d="M123.841 193.855C123.672 194.036 123.372 194.049 123.17 193.885C122.968 193.721 122.943 193.441 123.112 193.26C123.281 193.08 124 193 124 193C124 193 124.012 193.675 123.841 193.855Z" fill="#CD8D3E"/>
<path fill-rule="evenodd" clip-rule="evenodd" d="M111 203L110.006 202.421L110 198L110.993 198.579L111 203Z" fill="#CD8D3E"/>
<path fill-rule="evenodd" clip-rule="evenodd" d="M113 204L109 202.149C108.999 201.468 112.999 203.319 113 203.754V204Z" fill="#CD8D3E"/>
<path fill-rule="evenodd" clip-rule="evenodd" d="M111.607 195.651L110.995 196.158L111.75 196.499C111.887 196.762 110.515 198.121 110.515 198.121L111.512 196.687L110.592 196.368C110.397 195.978 110.929 195.34 110.929 195.34L108 194L108.006 197.198C108.007 197.447 108.143 197.744 108.37 197.986C109.984 199.707 111.028 200.185 112.638 199.94C112.864 199.905 113 199.734 113 199.485L112.994 196.286L111.607 195.651Z" fill="#CD8D3E"/>
<path fill-rule="evenodd" clip-rule="evenodd" d="M106.739 201.572L124.26 211.715V191.428L106.74 181.285L106.739 201.572ZM124.999 213L106 202V180L125 191L124.999 213Z" fill="#CD8D3E"/>
<path fill-rule="evenodd" clip-rule="evenodd" d="M125 202L107 190.9V190L125 201.101V202Z" fill="#CD8D3E"/>
<path fill-rule="evenodd" clip-rule="evenodd" d="M115.999 208L115 207.563V186L116 186.436L115.999 208Z" fill="#CD8D3E"/>
<path fill-rule="evenodd" clip-rule="evenodd" d="M89 136V158.41L101.999 166L102 143.525L89 136Z" fill="#F4AD52"/>
<path fill-rule="evenodd" clip-rule="evenodd" d="M89 137.475L102 145V143.524L89 136V137.475Z" fill="#BB660B"/>
<path fill-rule="evenodd" clip-rule="evenodd" d="M96 141.737L128 160V159.263L96 141V141.737Z" fill="#FFD288"/>
<path fill-rule="evenodd" clip-rule="evenodd" d="M96 141.752L101 145V144.248L96 141V141.752Z" fill="#F4AD52"/>
<path fill-rule="evenodd" clip-rule="evenodd" d="M94 140L62 121.737V121L94 139.263V140Z" fill="#FFD288"/>
<path fill-rule="evenodd" clip-rule="evenodd" d="M94 140L89 136.752V136L94 139.248V140Z" fill="#F4AD52"/>
<path fill-rule="evenodd" clip-rule="evenodd" d="M192 121.5L127.5 84L63 121.5L127.5 159L192 121.5Z" fill="#FFF2BE"/>
<path fill-rule="evenodd" clip-rule="evenodd" d="M167 106.477L154.039 99L89 136.522L101.961 144L167 106.477Z" fill="#FFD288"/>
<path fill-rule="evenodd" clip-rule="evenodd" d="M161 103.153L159.019 102L94 139.847L95.9808 141L161 103.153Z" fill="#EA9E2B"/>
<path fill-rule="evenodd" clip-rule="evenodd" d="M192 179.441L191.999 121L127 158.559L127.001 217L192 179.441Z" fill="#FFBA67"/>
<path fill-rule="evenodd" clip-rule="evenodd" d="M181.811 134.54C181.969 134.118 182.226 133.77 182.499 133.608C182.773 133.445 183.03 133.488 183.189 133.724L183.505 134.193L182.979 135.056L185.026 135.225L184.815 132.046L184.281 132.921L183.964 132.452C183.628 131.953 183.081 131.861 182.499 132.206C181.918 132.55 181.37 133.292 181.035 134.19L179.878 137.277L180.654 137.627L181.811 134.54ZM186.764 136.438L185.478 134.534L184.703 135.806L185.987 137.709C186.059 137.815 186.068 138.001 186.011 138.197C185.954 138.391 185.843 138.557 185.72 138.63L184.247 139.504V138.552L182.296 141.367L184.248 141.87V140.905L185.721 140.031C186.201 139.746 186.637 139.097 186.857 138.337C187.077 137.579 187.041 136.851 186.764 136.438ZM178.989 142.362C178.933 142.234 178.942 142.037 179.013 141.847L179.391 140.835L179.919 141.073L180.13 137.646L178.082 140.244L178.616 140.485L178.237 141.496C177.959 142.238 177.923 143.009 178.144 143.506C178.364 144.005 178.8 144.136 179.28 143.852L182.045 142.211V140.81L179.28 142.45C179.157 142.524 179.045 142.49 178.989 142.362Z" fill="#A85F20"/>
<path fill-rule="evenodd" clip-rule="evenodd" d="M50 48.9437V82L106 50.0456V17L50 48.9437Z" fill="#E04428"/>
<path fill-rule="evenodd" clip-rule="evenodd" d="M55.049 58.5756C55.049 56.279 55.5676 54.2152 56.6076 52.3835C57.5055 50.7775 58.6848 49.5395 60.1462 48.6681C61.4876 47.8687 62.6324 47.7868 63.5793 48.4218C64.5262 49.0568 65 50.1745 65 51.7741C65 53.425 64.691 55.2026 64.0745 57.1048C63.7386 58.1563 62.9545 60.0884 61.72 62.9004C61.3855 63.6678 60.8869 64.8481 60.2276 66.4414L59.6752 67.7569C59.3179 68.6155 59.0476 69.2854 58.8634 69.7695C58.7766 70.0122 58.7338 70.1546 58.7338 70.1952L64.7566 66.6058V70.1852L55 76V72.6455C55 72.5679 55.2228 71.9892 55.6697 70.9085C55.8766 70.4123 56.1103 69.8613 56.371 69.2548L57.1697 67.4074C57.6352 66.3695 58.3669 64.715 59.3634 62.4441C60.3062 60.3098 61.011 58.4645 61.4759 56.9105C61.8552 55.6397 62.0455 54.5534 62.0455 53.6507C62.0455 52.9153 61.8724 52.3928 61.5255 52.0831C61.1469 51.7677 60.66 51.7869 60.0648 52.1415C59.2103 52.6512 58.6041 53.5994 58.2462 54.9862C58.1276 55.444 58.0683 55.9437 58.0683 56.4855V57.4145L55.049 59.2142V58.5756Z" fill="white"/>
<path fill-rule="evenodd" clip-rule="evenodd" d="M71.705 57.1309V49.5798L69.039 58.6355L71.705 57.1309ZM66 60.3507L71.705 41.8216L74.9334 40V55.3086L77 54.1424V57.8062L74.9334 58.9724V64.1777L71.705 66V60.7948L66 64.0145V60.3507Z" fill="white"/>
<path fill-rule="evenodd" clip-rule="evenodd" d="M88.2693 31.4878L91 30L81.7314 61.5122L79 63L88.2693 31.4878Z" fill="white"/>
<path fill-rule="evenodd" clip-rule="evenodd" d="M102 24V27.7253L97.3336 51.1824L94.0681 53L98.7345 29.5437L92 33.2928V29.5675L102 24Z" fill="white"/>
<path fill-rule="evenodd" clip-rule="evenodd" d="M55.049 58.5756C55.049 56.279 55.5676 54.2152 56.6076 52.3835C57.5055 50.7775 58.6848 49.5395 60.1462 48.6681C61.4876 47.8687 62.6324 47.7868 63.5793 48.4218C64.5262 49.0568 65 50.1745 65 51.7741C65 53.425 64.691 55.2026 64.0745 57.1048C63.7386 58.1563 62.9545 60.0884 61.72 62.9004C61.3855 63.6678 60.8869 64.8481 60.2276 66.4414L59.6752 67.7569C59.3179 68.6155 59.0476 69.2854 58.8634 69.7695C58.7766 70.0122 58.7338 70.1546 58.7338 70.1952L64.7566 66.6058V70.1852L55 76V72.6455C55 72.5679 55.2228 71.9892 55.6697 70.9085C55.8766 70.4123 56.1103 69.8613 56.371 69.2548L57.1697 67.4074C57.6352 66.3695 58.3669 64.715 59.3634 62.4441C60.3062 60.3098 61.011 58.4645 61.4759 56.9105C61.8552 55.6397 62.0455 54.5534 62.0455 53.6507C62.0455 52.9153 61.8724 52.3928 61.5255 52.0831C61.1469 51.7677 60.66 51.7869 60.0648 52.1415C59.2103 52.6512 58.6041 53.5994 58.2462 54.9862C58.1276 55.444 58.0683 55.9437 58.0683 56.4855V57.4145L55.049 59.2142V58.5756Z" fill="white"/>
<path fill-rule="evenodd" clip-rule="evenodd" d="M71.705 57.1309V49.5798L69.039 58.6355L71.705 57.1309ZM66 60.3507L71.705 41.8216L74.9334 40V55.3086L77 54.1424V57.8062L74.9334 58.9724V64.1777L71.705 66V60.7948L66 64.0145V60.3507Z" fill="white"/>
<path fill-rule="evenodd" clip-rule="evenodd" d="M88.2693 31.4878L91 30L81.7314 61.5122L79 63L88.2693 31.4878Z" fill="white"/>
<path fill-rule="evenodd" clip-rule="evenodd" d="M102 24V27.7253L97.3336 51.1824L94.0681 53L98.7345 29.5437L92 33.2928V29.5675L102 24Z" fill="white"/>
<path fill-rule="evenodd" clip-rule="evenodd" d="M98.6775 13L43 44.8003L50.3225 49L106 17.199L98.6775 13Z" fill="#C7381E"/>
<path fill-rule="evenodd" clip-rule="evenodd" d="M26.6651 46.083C32.9243 42.4838 38.5906 42.1435 42.6924 44.5021L50 48.7024C45.8982 46.3438 40.2319 46.6848 33.9734 50.284C21.4551 57.4823 11.3076 74.9883 11.3076 89.385C11.3076 96.5833 13.8443 101.641 17.9461 104L10.6385 99.799C6.53669 97.4404 4 92.383 4 85.1847C3.99929 70.7873 14.1475 53.2813 26.6651 46.083Z" fill="#C7381E"/>
<path fill-rule="evenodd" clip-rule="evenodd" d="M11 88.6896C11 103.259 21.074 109.164 33.5 101.88C45.9268 94.5953 56 76.8797 56 62.3098C55.9993 47.7407 45.926 41.8357 33.5 49.1202C21.0732 56.4048 11 74.1205 11 88.6896Z" fill="#E04428"/>
<path fill-rule="evenodd" clip-rule="evenodd" d="M14 86.1777C14 98.5246 22.7304 103.529 33.5004 97.3559C44.2696 91.1828 53 76.1689 53 63.8226C53 51.4757 44.2689 46.4705 33.4996 52.6444C22.7304 58.8175 14 73.8307 14 86.1777Z" fill="white"/>
<path fill-rule="evenodd" clip-rule="evenodd" d="M33.5885 75L33 74.4499L44.2188 58.3463C44.4331 58.0387 44.7387 57.9122 44.9014 58.0646C45.0633 58.2163 45.0216 58.5888 44.8073 58.8964L33.5885 75Z" fill="#4F4AD1"/>
<path fill-rule="evenodd" clip-rule="evenodd" d="M33 74.249L31.9638 77L25.4363 75.7595C24.9937 75.6755 24.8669 74.9914 25.153 74.2319C25.439 73.4723 26.0299 72.9245 26.4725 73.0085L33 74.249Z" fill="#4F4AD1"/>
<path fill-rule="evenodd" clip-rule="evenodd" d="M30.0025 77.8878C29.985 77.7679 30.0614 77.6012 30.1729 77.5161L47.7646 64.0497C47.8755 63.9638 47.98 63.9922 47.9975 64.1121C48.015 64.2326 47.9386 64.3986 47.8271 64.4844L30.2361 77.9509C30.1238 78.036 30.0193 78.0076 30.0025 77.8878Z" fill="#F8B52F"/>
<path fill-rule="evenodd" clip-rule="evenodd" d="M26.3498 81C25.956 80.8542 25.8949 80.4938 26.1656 79.9181L30.6667 77C31.0369 77.1607 31.0989 77.5211 30.8518 78.0819L26.3498 81Z" fill="#F8B52F"/>
<path fill-rule="evenodd" clip-rule="evenodd" d="M35 75.106C35 76.0933 34.3289 77.2943 33.5007 77.7887C32.6718 78.2823 32 77.8815 32 76.8942C32 75.9068 32.6718 74.7059 33.5007 74.2115C34.3289 73.7178 35 74.1179 35 75.106Z" fill="#F8B52F"/>
<path fill-rule="evenodd" clip-rule="evenodd" d="M33.4997 60.9592C33.3315 61.0521 33.1936 60.9814 33.1879 60.7977L33.0002 54.7803C32.9937 54.5883 33.1352 54.3477 33.3113 54.25L33.688 54.0413C33.8641 53.9429 34.0056 54.0267 33.9998 54.2257L33.8115 60.4524C33.8057 60.6417 33.6678 60.8656 33.4997 60.9592Z" fill="#4F4AD1"/>
<path fill-rule="evenodd" clip-rule="evenodd" d="M22 82.2643C22 82.4949 21.8703 82.7752 21.7061 82.8987L16.3151 86.9417C16.1431 87.0711 16 86.9777 16 86.7351V86.219C16 85.9772 16.1431 85.6832 16.3151 85.57L21.7061 82.044C21.8703 81.9359 22 82.0337 22 82.2643Z" fill="#4F4AD1"/>
<path fill-rule="evenodd" clip-rule="evenodd" d="M33.5 90.0408C33.6681 89.9479 33.8058 90.0186 33.8116 90.2017L33.9998 96.22C34.0056 96.412 33.8642 96.6526 33.6882 96.7503L33.3118 96.959C33.1358 97.0568 32.9944 96.9736 33.0002 96.7739L33.1884 90.5476C33.1942 90.3583 33.3319 90.1337 33.5 90.0408Z" fill="#4F4AD1"/>
<path fill-rule="evenodd" clip-rule="evenodd" d="M45 68.7357C45 68.5051 45.1304 68.2248 45.2939 68.1014L50.6849 64.0578C50.8569 63.9292 51 64.0226 51 64.2644V64.7813C51 65.023 50.8569 65.3171 50.6849 65.4302L45.2939 68.9561C45.1304 69.0641 45 68.9663 45 68.7357Z" fill="#4F4AD1"/>
<path fill-rule="evenodd" clip-rule="evenodd" d="M226 43.383L225.181 45L222.175 43.6226L219 42.1679L220.799 41L226 43.383Z" fill="#FEF1C1"/>
<path fill-rule="evenodd" clip-rule="evenodd" d="M236 62.9213L234.11 64L233.566 60.0843L233 56.0244L234.898 55L236 62.9213Z" fill="#FFA81C"/>
<path fill-rule="evenodd" clip-rule="evenodd" d="M233 46.9685L231.029 48L228.498 41.3415L228 40.0308L229.97 39L233 46.9685Z" fill="#FFA81C"/>
<path fill-rule="evenodd" clip-rule="evenodd" d="M240 52.0762L238.197 53C238.152 52.9694 232 48.9238 232 48.9238L233.804 48L240 52.0762Z" fill="#FEF1C1"/>
<path fill-rule="evenodd" clip-rule="evenodd" d="M234.356 54.2298L232.534 55.2281L233.077 59.1843L233.6 63L228.022 56.4065L222.445 56.5714L223.511 50.0259L219 42.3548L222.203 43.6641L225.235 44.9037L226.061 43.4484L228.022 40L228.48 41.3357L230.809 48.1212L236.999 52.7237C237.045 52.7585 234.356 54.2298 234.356 54.2298Z" fill="#C7381E"/>
<path fill-rule="evenodd" clip-rule="evenodd" d="M249 57.383L248.181 59L245.175 57.6226L242 56.1679L243.799 55L249 57.383Z" fill="#FEF1C1"/>
<path fill-rule="evenodd" clip-rule="evenodd" d="M259 75.9213L257.11 77L256.566 73.0843L256 69.0244L257.898 68L259 75.9213Z" fill="#FFA81C"/>
<path fill-rule="evenodd" clip-rule="evenodd" d="M256 59.9685L254.029 61L251.498 54.3415L251 53.0308L252.971 52L256 59.9685Z" fill="#FFA81C"/>
<path fill-rule="evenodd" clip-rule="evenodd" d="M262 65.0762L260.197 66C260.152 65.9694 254 61.9238 254 61.9238L255.804 61L262 65.0762Z" fill="#FEF1C1"/>
<path fill-rule="evenodd" clip-rule="evenodd" d="M258.356 68.2298L256.534 69.2281L257.077 73.1843L257.6 77L252.022 70.4065L246.445 70.5714L247.511 64.0259L243 56.3548L246.203 57.6641L249.235 58.9037L250.061 57.4484L252.022 54L252.48 55.3357L254.809 62.1212L260.999 66.7237C261.045 66.7585 258.356 68.2298 258.356 68.2298Z" fill="#C7381E"/>
<path fill-rule="evenodd" clip-rule="evenodd" d="M272 70.383L271.181 72L268.175 70.6226L265 69.1679L266.799 68L272 70.383Z" fill="#FEF1C1"/>
<path fill-rule="evenodd" clip-rule="evenodd" d="M282 88.9213L280.11 90L279.566 86.0843L279 82.0244L280.898 81L282 88.9213Z" fill="#FFA81C"/>
<path fill-rule="evenodd" clip-rule="evenodd" d="M279 73.9691L277.03 75L274.498 68.3417L274 67.0309L275.971 66L279 73.9691Z" fill="#FFA81C"/>
<path fill-rule="evenodd" clip-rule="evenodd" d="M285 78.0762L283.196 79C283.151 78.9694 277 74.9238 277 74.9238L278.804 74L285 78.0762Z" fill="#FEF1C1"/>
<path fill-rule="evenodd" clip-rule="evenodd" d="M280.356 81.2298L278.534 82.2281L279.077 86.1843L279.6 90L274.022 83.4065L268.445 83.5714L269.511 77.0259L265 69.3548L268.203 70.6641L271.235 71.9037L272.061 70.4484L274.022 67L274.48 68.3357L276.809 75.1205L282.999 79.7237C283.045 79.7585 280.356 81.2298 280.356 81.2298Z" fill="#C7381E"/>
<path fill-rule="evenodd" clip-rule="evenodd" d="M295 83.383L294.181 85L291.175 83.6226L288 82.1679L289.799 81L295 83.383Z" fill="#FEF1C1"/>
<path fill-rule="evenodd" clip-rule="evenodd" d="M304 101.921L302.11 103L301.567 99.0843L301 95.0244L302.898 94L304 101.921Z" fill="#FFA81C"/>
<path fill-rule="evenodd" clip-rule="evenodd" d="M302 86.9685L300.03 88L297.498 81.3422L297 80.0315L298.971 79L302 86.9685Z" fill="#FFA81C"/>
<path fill-rule="evenodd" clip-rule="evenodd" d="M308 91.0762L306.196 92C306.151 91.9694 300 87.9238 300 87.9238L301.804 87L308 91.0762Z" fill="#FEF1C1"/>
<path fill-rule="evenodd" clip-rule="evenodd" d="M303.356 94.2302L301.534 95.2285L302.077 99.1849L302.6 103L297.022 96.407L291.445 96.5719L292.511 90.0262L288 82.3549L291.203 83.6642L294.235 84.9039L295.061 83.4485L297.022 80L297.48 81.3357L299.809 88.1207L305.999 92.7241C306.045 92.7588 303.356 94.2302 303.356 94.2302Z" fill="#C7381E"/>
<path fill-rule="evenodd" clip-rule="evenodd" d="M318 96.383L317.181 98L314.175 96.6226L311 95.1679L312.799 94L318 96.383Z" fill="#FEF1C1"/>
<path fill-rule="evenodd" clip-rule="evenodd" d="M328 114.921L326.11 116L325.567 112.084L325 108.024L326.898 107L328 114.921Z" fill="#FFA81C"/>
<path fill-rule="evenodd" clip-rule="evenodd" d="M325 99.9685L323.03 101L320.498 94.3422L320 93.0315L321.971 92L325 99.9685Z" fill="#FFA81C"/>
<path fill-rule="evenodd" clip-rule="evenodd" d="M331 104.076L329.196 105C329.151 104.969 323 100.924 323 100.924L324.804 100L331 104.076Z" fill="#FEF1C1"/>
<path fill-rule="evenodd" clip-rule="evenodd" d="M325.356 107.23L323.534 108.229L324.077 112.185L324.6 116L319.023 109.407L313.445 109.572L314.511 103.026L310 95.3549L313.203 96.6642L316.235 97.9039L317.061 96.4485L319.023 93L319.48 94.3357L321.809 101.121L327.999 105.724C328.045 105.759 325.356 107.23 325.356 107.23Z" fill="#C7381E"/>
</svg>
